<?xml version="1.0" encoding="UTF-8" standalone="no"?>
<!DOCTYPE svg PUBLIC "-//W3C//DTD SVG 1.1//EN" "http://www.w3.org/Graphics/SVG/1.1/DTD/svg11.dtd">
<svg xmlns="http://www.w3.org/2000/svg" version="1.1" viewBox="0 0 1600 444">
<g stroke-width="2.00" fill="none" stroke-linecap="butt">
<path stroke="#aaaca3" vector-effect="non-scaling-stroke" d="
  M 885.00 70.21
  L 884.35 71.30
  A 1.04 0.98 -31.3 0 0 884.21 71.81
  L 884.34 114.91
  A 1.01 1.01 0.0 0 0 885.31 115.91
  L 893.75 116.22"
/>
<path stroke="#aaaca3" vector-effect="non-scaling-stroke" d="
  M 1523.04 117.00
  Q 1522.52 117.43 1521.82 117.47
  A 1.01 1.00 19.5 0 0 1521.12 117.80
  L 1432.35 217.06
  A 1.01 1.01 0.0 0 0 1432.33 218.38
  L 1441.25 228.79"
/>
<path stroke="#87887f" vector-effect="non-scaling-stroke" d="
  M 1518.05 318.47
  L 1370.99 318.57"
/>
<path stroke="#aaaca3" vector-effect="non-scaling-stroke" d="
  M 1366.26 313.49
  L 1357.00 303.28
  A 1.00 1.00 0.0 0 0 1355.52 303.28
  L 1341.75 318.46"
/>
<path stroke="#87887f" vector-effect="non-scaling-stroke" d="
  M 1341.75 318.46
  Q 1234.76 318.51 1127.77 318.56
  C 1127.65 318.56 1127.13 318.74 1127.00 318.79"
/>
<path stroke="#aaaca3" vector-effect="non-scaling-stroke" d="
  M 1097.47 295.06
  Q 1092.76 290.45 1086.80 286.16
  A 1.01 1.00 -47.1 0 0 1085.57 286.21
  L 1046.50 318.46"
/>
<path stroke="#87887f" vector-effect="non-scaling-stroke" d="
  M 1046.50 318.46
  L 526.79 318.50"
/>
<path stroke="#87887f" vector-effect="non-scaling-stroke" d="
  M 526.25 312.71
  L 526.02 295.57
  Q 525.99 293.32 524.34 294.85
  Q 496.63 320.52 459.24 327.69
  C 417.75 335.64 375.68 324.73 343.79 296.98
  Q 343.38 296.63 343.04 296.77"
/>
<path stroke="#aaaca3" vector-effect="non-scaling-stroke" d="
  M 321.14 268.31
  L 315.33 255.75
  A 1.00 1.00 0.0 0 0 313.79 255.39
  L 277.50 285.29"
/>
<path stroke="#87887f" vector-effect="non-scaling-stroke" d="
  M 277.50 285.29
  Q 253.96 285.22 230.42 285.25
  C 229.57 285.25 229.13 285.75 229.79 286.50"
/>
<path stroke="#aaaca3" vector-effect="non-scaling-stroke" d="
  M 229.79 286.50
  Q 228.69 288.49 228.75 291.25
  Q 229.00 301.93 228.71 318.50"
/>
<path stroke="#87887f" vector-effect="non-scaling-stroke" d="
  M 228.71 318.50
  L 116.18 318.57"
/>
<path stroke="#777870" vector-effect="non-scaling-stroke" d="
  M 286.54 296.68
  Q 282.72 290.38 277.50 285.29"
/>
<path stroke="#777870" vector-effect="non-scaling-stroke" d="
  M 1351.00 329.54
  Q 1346.77 323.67 1341.75 318.46"
/>
<path stroke="#777870" vector-effect="non-scaling-stroke" d="
  M 1056.25 329.72
  Q 1051.83 323.46 1046.50 318.46"
/>
<path stroke="#777870" vector-effect="non-scaling-stroke" d="
  M 237.32 329.70
  Q 234.10 323.25 228.71 318.50"
/>
<path stroke="#777870" vector-effect="non-scaling-stroke" d="
  M 238.79 296.50
  L 229.79 286.50"
/>
<path stroke="#5d5e59" vector-effect="non-scaling-stroke" d="
  M 529.29 152.01
  Q 496.59 114.90 446.73 109.76
  Q 416.83 106.68 388.59 116.62
  Q 350.90 129.88 328.49 162.85
  A 1.01 1.01 0.0 0 1 327.02 163.06
  L 276.44 120.98
  A 1.01 1.00 64.5 0 0 275.80 120.75
  L 121.07 120.75
  A 1.00 1.00 0.0 0 0 120.07 121.76
  Q 120.27 144.94 120.04 183.00
  Q 119.79 221.83 120.28 290.92
  Q 120.29 292.45 119.98 301.94
  Q 119.80 307.24 120.22 312.61
  A 1.00 0.99 87.8 0 0 121.21 313.53
  L 223.51 313.50
  A 1.00 0.99 -0.3 0 0 224.51 312.50
  L 224.47 281.49
  A 1.00 1.00 0.0 0 1 225.47 280.49
  L 275.86 280.60
  A 1.01 1.00 -64.5 0 0 276.50 280.37
  L 315.82 247.81
  A 1.00 0.99 -29.1 0 1 317.40 248.26
  Q 323.01 264.79 333.76 278.55
  C 362.13 314.85 407.82 330.63 453.15 323.77
  Q 499.18 316.80 529.64 282.25
  Q 531.05 280.66 531.04 282.78
  L 530.98 312.41
  A 1.01 1.00 -89.4 0 0 531.96 313.42
  Q 566.72 313.99 588.44 313.68
  C 609.08 313.39 627.39 313.81 646.57 313.72
  C 778.33 313.14 905.94 313.50 1045.18 313.50
  A 1.01 1.00 -64.5 0 0 1045.82 313.27
  L 1085.80 280.18
  A 1.00 1.00 0.0 0 1 1087.08 280.18
  L 1126.95 313.27
  A 1.01 1.00 64.5 0 0 1127.59 313.50
  L 1339.65 313.50
  A 1.02 1.01 20.9 0 0 1340.40 313.17
  L 1355.56 296.13
  A 1.01 1.01 0.0 0 1 1357.06 296.13
  L 1372.16 313.16
  A 1.01 1.00 69.1 0 0 1372.91 313.50
  L 1505.93 313.51
  Q 1508.11 313.51 1506.69 311.85
  L 1426.32 218.29
  A 1.01 1.00 45.7 0 1 1426.33 216.97
  L 1510.87 122.42
  Q 1512.36 120.75 1510.13 120.75
  L 1373.19 120.75
  A 1.00 0.97 20.0 0 0 1372.45 121.08
  L 1357.02 138.30
  A 1.00 1.00 0.0 0 1 1355.53 138.30
  L 1340.16 121.08
  A 1.02 1.01 -20.9 0 0 1339.41 120.75
  L 1127.84 120.75
  A 1.01 1.00 -64.5 0 0 1127.20 120.98
  L 1087.04 154.38
  A 1.00 1.00 0.0 0 1 1085.76 154.38
  L 1045.57 120.98
  A 1.01 1.00 64.5 0 0 1044.93 120.75
  L 881.00 120.75
  A 1.00 1.00 0.0 0 1 880.00 119.75
  L 880.00 75.55
  A 1.01 1.00 -4.4 0 0 878.84 74.56
  L 757.60 93.36
  A 1.00 1.00 0.0 0 0 756.75 94.35
  L 756.75 119.75
  A 1.00 1.00 0.0 0 1 755.75 120.75
  L 531.98 120.75
  A 1.00 1.00 0.0 0 0 530.98 121.75
  L 531.04 151.35
  Q 531.04 154.00 529.29 152.01"
/>
<path stroke="#808080" vector-effect="non-scaling-stroke" d="
  M 863.07 138.00
  A 0.32 0.32 0.0 0 1 862.75 137.68
  L 862.75 94.73
  A 0.32 0.32 0.0 0 0 862.38 94.42
  L 774.27 108.06
  A 0.32 0.32 0.0 0 0 774.00 108.37
  L 774.00 138.15
  A 0.32 0.32 0.0 0 1 773.88 138.40
  L 724.87 179.15
  A 0.32 0.32 0.0 0 0 724.75 179.40
  L 724.75 255.17
  A 0.32 0.32 0.0 0 0 724.87 255.42
  L 774.36 296.43
  A 0.32 0.32 0.0 0 0 774.57 296.50
  L 1039.15 296.50
  A 0.32 0.32 0.0 0 0 1039.36 296.43
  L 1086.21 257.60
  A 0.32 0.32 0.0 0 1 1086.61 257.60
  L 1133.52 296.44
  A 0.32 0.32 0.0 0 0 1133.73 296.51
  L 1332.16 296.52
  A 0.32 0.32 0.0 0 0 1332.40 296.41
  L 1356.02 269.90
  A 0.32 0.32 0.0 0 1 1356.50 269.90
  L 1380.26 296.39
  A 0.32 0.32 0.0 0 0 1380.50 296.50
  L 1470.25 296.51
  A 0.32 0.32 0.0 0 0 1470.50 295.98
  L 1403.17 217.64
  A 0.32 0.32 0.0 0 1 1403.18 217.22
  L 1473.48 138.52
  A 0.32 0.32 0.0 0 0 1473.24 137.99
  L 1380.43 138.01
  A 0.32 0.32 0.0 0 0 1380.19 138.12
  L 1356.51 164.56
  A 0.32 0.32 0.0 0 1 1356.03 164.56
  L 1332.43 138.11
  A 0.32 0.32 0.0 0 0 1332.19 138.00
  L 1133.62 138.00
  A 0.32 0.32 0.0 0 0 1133.41 138.07
  L 1086.64 177.01
  A 0.32 0.32 0.0 0 1 1086.24 177.01
  L 1039.42 138.07
  A 0.32 0.32 0.0 0 0 1039.21 138.00
  L 863.07 138.00"
/>
<path stroke="#808080" vector-effect="non-scaling-stroke" d="
  M 536.48 217.22
  A 103.49 91.09 0.0 0 0 432.99 126.13
  A 103.49 91.09 0.0 0 0 329.50 217.22
  A 103.49 91.09 0.0 0 0 432.99 308.31
  A 103.49 91.09 0.0 0 0 536.48 217.22"
/>
<path stroke="#808080" vector-effect="non-scaling-stroke" d="
  M 618.80 170.82
  A 0.32 0.32 0.0 0 1 618.25 170.60
  L 618.25 138.33
  A 0.32 0.32 0.0 0 0 617.93 138.01
  L 548.57 137.98
  A 0.32 0.32 0.0 0 0 548.25 138.30
  L 548.25 296.18
  A 0.32 0.32 0.0 0 0 548.57 296.50
  L 617.93 296.50
  A 0.32 0.32 0.0 0 0 618.25 296.18
  L 618.24 258.15
  A 0.32 0.32 0.0 0 1 618.79 257.93
  L 656.11 296.40
  A 0.32 0.32 0.0 0 0 656.34 296.50
  L 751.05 296.50
  A 0.32 0.32 0.0 0 0 751.28 295.95
  L 669.20 213.60
  A 0.32 0.32 0.0 0 1 669.21 213.14
  L 749.29 138.55
  A 0.32 0.32 0.0 0 0 749.07 138.00
  L 651.78 137.98
  A 0.32 0.32 0.0 0 0 651.56 138.07
  L 618.80 170.82"
/>
<path stroke="#808080" vector-effect="non-scaling-stroke" d="
  M 207.24 263.84
  A 0.34 0.34 0.0 0 1 207.58 263.50
  L 269.90 263.50
  A 0.34 0.34 0.0 0 0 270.11 263.42
  L 319.63 222.38
  A 0.34 0.34 0.0 0 0 319.75 222.12
  L 319.75 179.35
  A 0.34 0.34 0.0 0 0 319.63 179.09
  L 270.21 138.08
  A 0.34 0.34 0.0 0 0 270.00 138.00
  L 137.59 138.00
  A 0.34 0.34 0.0 0 0 137.25 138.34
  L 137.25 296.16
  A 0.34 0.34 0.0 0 0 137.59 296.50
  L 206.94 296.50
  A 0.34 0.34 0.0 0 0 207.28 296.16
  L 207.24 263.84"
/>
<path stroke="#808080" vector-effect="non-scaling-stroke" d="
  M 785.78 117.87
  A 0.32 0.32 0.0 0 0 785.51 118.18
  L 785.48 138.39
  A 0.32 0.32 0.0 0 0 785.84 138.71
  L 850.97 131.44
  A 0.32 0.32 0.0 0 0 851.25 131.12
  L 851.25 108.11
  A 0.32 0.32 0.0 0 0 850.88 107.80
  L 785.78 117.87"
/>
<path stroke="#808080" vector-effect="non-scaling-stroke" d="
  M 1148.58 199.97
  A 0.33 0.33 0.0 0 1 1148.25 199.64
  L 1148.25 188.92
  A 0.33 0.33 0.0 0 1 1148.58 188.59
  L 1225.65 188.61
  A 0.33 0.33 0.0 0 0 1225.92 188.47
  L 1253.06 150.01
  A 0.33 0.33 0.0 0 0 1252.79 149.49
  L 1137.63 149.50
  A 0.33 0.33 0.0 0 0 1137.42 149.58
  L 1095.37 184.59
  A 0.33 0.33 0.0 0 0 1095.25 184.84
  L 1095.25 249.74
  A 0.33 0.33 0.0 0 0 1095.37 250.00
  L 1137.49 284.92
  A 0.33 0.33 0.0 0 0 1137.70 285.00
  L 1252.81 285.00
  A 0.33 0.33 0.0 0 0 1253.08 284.48
  L 1225.81 245.88
  A 0.33 0.33 0.0 0 0 1225.54 245.74
  L 1148.58 245.76
  A 0.33 0.33 0.0 0 1 1148.25 245.43
  L 1148.25 234.57
  A 0.33 0.33 0.0 0 1 1148.58 234.24
  L 1210.19 234.28
  A 0.33 0.33 0.0 0 0 1210.52 233.95
  L 1210.49 200.00
  A 0.33 0.33 0.0 0 0 1210.16 199.67
  L 1148.58 199.97"
/>
<path stroke="#808080" vector-effect="non-scaling-stroke" d="
  M 789.00 244.75
  L 789.00 235.24
  A 1.00 1.00 0.0 0 1 790.00 234.24
  L 850.53 234.27
  A 1.01 1.00 0.0 0 0 851.54 233.27
  L 851.48 200.69
  A 1.00 1.00 0.0 0 0 850.48 199.69
  L 790.00 199.88
  A 1.00 0.99 89.7 0 1 789.00 198.88
  L 789.00 189.42
  A 1.00 1.00 0.0 0 1 790.01 188.42
  Q 805.51 188.67 821.00 188.73
  C 833.37 188.77 850.92 188.24 865.98 188.80
  A 1.00 0.98 -71.5 0 0 866.83 188.37
  L 893.14 151.08
  Q 894.25 149.50 892.32 149.50
  L 778.77 149.50
  A 1.01 1.00 -64.5 0 0 778.13 149.73
  L 736.37 184.42
  A 1.00 1.00 0.0 0 0 736.01 185.19
  L 736.01 249.36
  A 1.00 1.00 0.0 0 0 736.37 250.13
  L 778.19 284.79
  A 1.01 1.00 64.5 0 0 778.83 285.02
  L 892.36 284.99
  Q 894.29 284.99 893.18 283.42
  L 866.88 246.17
  A 1.01 1.00 72.4 0 0 866.06 245.74
  L 790.00 245.75
  A 1.00 1.00 0.0 0 1 789.00 244.75"
/>
<path stroke="#808080" vector-effect="non-scaling-stroke" d="
  M 1077.50 184.74
  A 0.34 0.34 0.0 0 0 1077.38 184.48
  L 1035.42 149.58
  A 0.34 0.34 0.0 0 0 1035.21 149.50
  L 913.34 149.50
  A 0.34 0.34 0.0 0 0 913.00 149.84
  L 912.99 284.66
  A 0.34 0.34 0.0 0 0 913.33 285.00
  L 1035.14 285.00
  A 0.34 0.34 0.0 0 0 1035.35 284.92
  L 1077.38 250.08
  A 0.34 0.34 0.0 0 0 1077.50 249.82
  L 1077.50 184.74"
/>
<path stroke="#808080" vector-effect="non-scaling-stroke" d="
  M 1355.51 253.40
  A 1.01 1.00 -45.2 0 1 1357.01 253.39
  L 1385.06 284.67
  A 1.02 1.01 -20.9 0 0 1385.81 285.00
  L 1443.87 285.00
  Q 1446.05 285.00 1444.63 283.35
  L 1388.37 217.92
  A 1.01 0.99 -44.6 0 1 1388.39 216.60
  L 1446.94 151.17
  Q 1448.44 149.50 1446.20 149.50
  L 1385.74 149.50
  A 1.02 1.01 20.9 0 0 1384.99 149.83
  L 1357.02 181.07
  A 1.00 1.00 0.0 0 1 1355.53 181.07
  L 1327.64 149.84
  A 1.01 1.00 69.1 0 0 1326.89 149.50
  L 1266.41 149.50
  Q 1264.17 149.50 1265.66 151.17
  L 1324.10 216.54
  A 1.00 0.99 -45.2 0 1 1324.10 217.87
  L 1265.65 283.33
  Q 1264.16 285.00 1266.39 285.00
  L 1326.82 285.00
  A 1.02 1.01 20.9 0 0 1327.57 284.67
  L 1355.51 253.40"
/>
<path stroke="#808080" vector-effect="non-scaling-stroke" d="
  M 900.06 161.10
  L 872.61 199.87
  A 0.98 0.97 18.7 0 1 871.75 200.29
  L 863.79 199.95
  A 1.00 1.00 0.0 0 0 862.75 200.95
  L 862.75 233.25
  A 1.00 1.00 0.0 0 0 863.75 234.25
  L 871.94 234.25
  A 1.01 1.00 -17.6 0 1 872.76 234.67
  L 900.04 273.37
  Q 901.49 275.43 901.50 272.91
  L 901.51 161.56
  Q 901.51 159.05 900.06 161.10"
/>
<path stroke="#808080" vector-effect="non-scaling-stroke" d="
  M 1231.46 234.26
  A 0.30 0.30 0.0 0 1 1231.71 234.39
  L 1259.00 273.06
  A 0.30 0.30 0.0 0 0 1259.47 273.09
  L 1309.24 217.45
  A 0.30 0.30 0.0 0 0 1309.24 217.05
  L 1259.46 161.33
  A 0.30 0.30 0.0 0 0 1258.99 161.36
  L 1231.69 199.99
  A 0.30 0.30 0.0 0 1 1231.44 200.12
  L 1222.57 200.01
  A 0.30 0.30 0.0 0 0 1222.27 200.31
  L 1222.22 234.00
  A 0.30 0.30 0.0 0 0 1222.52 234.30
  L 1231.46 234.26"
/>
<path stroke="#6c6d6b" vector-effect="non-scaling-stroke" d="
  M 847.00 113.07
  A 0.34 0.34 0.0 0 0 846.61 112.73
  L 790.04 121.51
  A 0.34 0.34 0.0 0 0 789.75 121.84
  L 789.75 133.65
  A 0.34 0.34 0.0 0 0 790.13 133.99
  L 846.70 127.65
  A 0.34 0.34 0.0 0 0 847.00 127.32
  L 847.00 113.07"
/>
<path stroke="#808080" vector-effect="non-scaling-stroke" d="
  M 410.76 139.97
  C 384.47 145.49 358.41 162.86 347.34 188.08
  Q 333.55 219.47 349.05 250.32
  A 0.99 0.98 -26.6 0 0 350.38 250.76
  L 391.70 230.22
  A 0.99 0.99 0.0 0 0 392.19 228.99
  C 383.37 204.56 403.57 184.31 426.50 181.48
  Q 448.59 178.75 465.23 193.04
  A 1.00 0.99 51.7 0 0 466.33 193.18
  L 507.92 172.55
  A 1.01 1.00 -33.2 0 0 508.25 171.01
  Q 495.76 156.05 478.81 147.93
  Q 446.53 132.46 410.76 139.97"
/>
<path stroke="#808080" vector-effect="non-scaling-stroke" d="
  M 366.69 272.56
  C 409.30 311.08 487.98 303.52 516.33 250.84
  Q 533.49 218.94 517.12 184.12
  A 1.01 1.00 64.1 0 0 515.77 183.65
  L 474.49 204.10
  A 1.01 1.00 69.0 0 0 473.97 205.28
  Q 479.32 223.54 469.05 236.73
  C 452.70 257.73 420.05 258.45 400.75 241.37
  A 1.00 0.99 -37.0 0 0 399.64 241.22
  L 357.98 261.99
  A 1.01 1.00 56.0 0 0 357.68 263.55
  Q 361.54 267.90 366.69 272.56"
/>
<path stroke="#808080" vector-effect="non-scaling-stroke" d="
  M 459.3280 216.8884
  A 26.32 23.20 -0.7 0 0 432.7266 194.0117
  A 26.32 23.20 -0.7 0 0 406.6920 217.5316
  A 26.32 23.20 -0.7 0 0 433.2934 240.4083
  A 26.32 23.20 -0.7 0 0 459.3280 216.8884"
/>
<path stroke="#501308" vector-effect="non-scaling-stroke" d="
  M 349.75 193.71
  Q 339.81 219.63 351.07 244.41
  A 1.01 1.01 0.0 0 0 352.43 244.90
  L 386.39 228.10
  A 1.00 1.00 0.0 0 0 386.93 227.01
  Q 383.51 209.72 392.54 196.25"
/>
<path stroke="#64170a" vector-effect="non-scaling-stroke" d="
  M 392.54 196.25
  C 410.35 173.02 443.28 170.96 465.91 187.98
  A 1.02 1.01 50.0 0 0 466.96 188.08
  L 500.99 171.20
  A 1.01 1.00 55.2 0 0 501.27 169.61
  Q 489.90 157.69 474.75 150.77
  C 458.83 143.50 441.55 140.94 424.26 142.30
  C 393.74 144.69 360.30 163.63 349.75 193.71"
/>
<path stroke="#b42a12" vector-effect="non-scaling-stroke" d="
  M 392.54 196.25
  Q 392.01 195.56 391.34 196.14
  Q 389.80 196.20 389.97 195.38
  A 0.51 0.51 0.0 0 0 389.56 194.77
  Q 383.18 193.69 376.74 194.50
  Q 375.41 194.67 374.40 193.88
  A 0.99 0.98 -25.2 0 0 373.78 193.66
  L 356.86 193.71
  A 0.64 0.62 15.0 0 0 356.32 194.01
  C 355.57 195.24 350.91 194.11 349.75 193.71"
/>
<path stroke="#808080" vector-effect="non-scaling-stroke" d="
  M 606.75 192.50
  L 606.75 150.50
  A 1.00 1.00 0.0 0 0 605.75 149.50
  L 560.50 149.50
  A 1.00 1.00 0.0 0 0 559.50 150.50
  L 559.50 284.00
  A 1.00 1.00 0.0 0 0 560.50 285.00
  L 605.75 285.00
  A 1.00 1.00 0.0 0 0 606.75 284.00
  L 606.75 237.75
  A 1.00 1.00 0.0 0 1 607.75 236.75
  L 613.57 236.75
  A 1.02 0.99 67.2 0 1 614.29 237.06
  L 660.57 284.70
  A 1.03 1.01 67.2 0 0 661.29 285.00
  L 722.45 285.00
  Q 724.38 285.00 723.02 283.64
  L 653.25 213.87
  A 1.01 1.00 46.2 0 1 653.27 212.43
  L 719.35 150.88
  Q 720.83 149.50 718.80 149.50
  L 656.54 149.50
  A 1.03 0.98 -66.5 0 0 655.83 149.80
  L 612.42 193.20
  A 1.03 0.98 -66.5 0 1 611.71 193.50
  L 607.75 193.50
  A 1.00 1.00 0.0 0 1 606.75 192.50"
/>
<path stroke="#808080" vector-effect="non-scaling-stroke" d="
  M 195.43 285.00
  A 0.31 0.31 0.0 0 0 195.74 284.69
  L 195.73 252.31
  A 0.31 0.31 0.0 0 1 196.04 252.00
  L 265.94 252.00
  A 0.31 0.31 0.0 0 0 266.14 251.93
  L 308.14 217.12
  A 0.31 0.31 0.0 0 0 308.25 216.88
  L 308.25 184.66
  A 0.31 0.31 0.0 0 0 308.14 184.42
  L 266.26 149.57
  A 0.31 0.31 0.0 0 0 266.06 149.50
  L 149.06 149.50
  A 0.31 0.31 0.0 0 0 148.75 149.81
  L 148.75 284.69
  A 0.31 0.31 0.0 0 0 149.06 285.00
  L 195.43 285.00"
/>
<path stroke="#5d5e59" vector-effect="non-scaling-stroke" d="
  M 563.79 202.25
  L 563.79 232.50"
/>
<path stroke="#4d4e4a" vector-effect="non-scaling-stroke" d="
  M 563.79 232.50
  L 563.79 244.00"
/>
<path stroke="#383933" vector-effect="non-scaling-stroke" d="
  M 563.79 244.00
  L 563.76 279.75
  A 1.00 1.00 0.0 0 0 564.76 280.75
  L 601.56 280.75
  A 1.00 1.00 0.0 0 0 602.56 279.74
  L 602.48 268.10"
/>
<path stroke="#4d4e4a" vector-effect="non-scaling-stroke" d="
  M 602.48 268.10
  L 602.46 253.50"
/>
<path stroke="#5d5e59" vector-effect="non-scaling-stroke" d="
  M 602.46 253.50
  L 602.57 233.24
  A 1.00 1.00 0.0 0 1 603.57 232.25
  L 615.20 232.25
  A 0.99 0.98 -21.8 0 1 615.91 232.55
  L 643.71 261.00"
/>
<path stroke="#4d4e4a" vector-effect="non-scaling-stroke" d="
  M 643.71 261.00
  L 655.25 273.04"
/>
<path stroke="#383933" vector-effect="non-scaling-stroke" d="
  M 655.25 273.04
  L 662.62 280.48
  A 1.03 0.98 66.5 0 0 663.33 280.78
  L 711.52 280.74
  Q 713.77 280.74 712.26 279.07
  Q 708.08 274.43 703.55 270.82"
/>
<path stroke="#4d4e4a" vector-effect="non-scaling-stroke" d="
  M 703.55 270.82
  L 691.79 258.75"
/>
<path stroke="#5d5e59" vector-effect="non-scaling-stroke" d="
  M 691.79 258.75
  L 652.00 218.96"
/>
<path stroke="#6c6d6b" vector-effect="non-scaling-stroke" d="
  M 652.00 218.96
  L 647.05 213.73
  A 1.00 1.00 0.0 0 1 647.10 212.31
  L 708.55 155.11
  Q 709.96 153.79 708.03 153.72
  Q 704.77 153.61 701.48 153.62
  Q 680.26 153.70 658.88 153.47
  A 1.02 0.98 21.8 0 0 658.17 153.76
  L 614.32 197.25
  A 1.02 0.98 21.8 0 1 613.61 197.54
  L 603.49 197.48
  A 0.99 0.99 0.0 0 1 602.50 196.49
  L 602.50 154.44
  A 1.00 1.00 0.0 0 0 601.49 153.44
  L 564.68 153.79
  A 1.00 1.00 0.0 0 0 563.69 154.79
  L 563.79 202.25"
/>
<path stroke="#c9cbc4" vector-effect="non-scaling-stroke" d="
  M 652.00 218.96
  Q 646.50 218.59 641.00 218.70
  C 624.31 219.06 607.72 217.35 591.06 218.67
  C 590.73 218.69 589.79 218.22 589.29 218.23
  Q 578.76 218.34 568.22 218.50
  Q 567.63 218.51 566.81 218.74
  Q 566.44 218.84 566.03 218.91
  A 1.01 1.00 83.0 0 1 564.86 217.99
  L 563.79 202.25"
/>
<path stroke="#aaaca3" vector-effect="non-scaling-stroke" d="
  M 691.79 258.75
  Q 689.78 259.97 688.52 258.21
  A 1.00 0.99 69.9 0 0 687.62 257.79
  C 685.61 257.97 683.69 258.55 681.74 258.53
  Q 663.80 258.35 645.85 258.70
  C 644.45 258.73 643.42 259.55 643.71 261.00"
/>
<path stroke="#aaaca3" vector-effect="non-scaling-stroke" d="
  M 602.46 253.50
  L 565.52 253.39
  A 0.51 0.51 0.0 0 1 565.01 252.88
  Q 565.01 252.52 564.67 252.32
  A 1.02 1.02 0.0 0 1 564.19 251.42
  Q 564.56 241.94 563.79 232.50"
/>
<path stroke="#85867c" vector-effect="non-scaling-stroke" d="
  M 703.55 270.82
  L 657.84 271.41
  A 1.02 0.98 -61.5 0 0 657.27 271.59
  L 655.25 273.04"
/>
<path stroke="#85867c" vector-effect="non-scaling-stroke" d="
  M 602.48 268.10
  Q 585.28 267.04 566.11 267.77
  A 0.99 0.99 0.0 0 1 565.12 267.06
  C 562.99 259.96 564.16 251.42 563.79 244.00"
/>
<path stroke="#5d5e59" vector-effect="non-scaling-stroke" d="
  M 1099.54 223.25
  L 1099.50 247.09
  A 0.99 0.99 0.0 0 0 1099.79 247.79
  L 1101.46 249.50"
/>
<path stroke="#4d4e4a" vector-effect="non-scaling-stroke" d="
  M 1101.46 249.50
  L 1119.96 264.75"
/>
<path stroke="#383933" vector-effect="non-scaling-stroke" d="
  M 1119.96 264.75
  L 1139.19 280.52
  A 1.01 1.00 64.5 0 0 1139.83 280.75
  L 1243.28 280.75
  Q 1245.24 280.75 1244.10 279.17
  L 1231.81 262.13"
/>
<path stroke="#4d4e4a" vector-effect="non-scaling-stroke" d="
  M 1231.81 262.13
  L 1223.85 250.44
  A 0.98 0.98 0.0 0 0 1223.03 250.00
  L 1145.26 250.00
  A 1.00 0.99 88.8 0 1 1144.27 249.04
  L 1144.20 247.67"
/>
<path stroke="#5d5e59" vector-effect="non-scaling-stroke" d="
  M 1144.20 247.67
  L 1144.18 231.25
  A 1.00 1.00 0.0 0 1 1145.18 230.25
  L 1205.45 230.25
  A 1.00 1.00 0.0 0 0 1206.45 229.25
  L 1206.47 217.71"
/>
<path stroke="#6c6d6b" vector-effect="non-scaling-stroke" d="
  M 1206.47 217.71
  L 1206.49 205.25
  A 1.00 1.00 0.0 0 0 1205.49 204.25
  L 1145.22 204.25
  A 1.00 1.00 0.0 0 1 1144.22 203.25
  L 1144.23 185.50
  A 1.01 1.01 0.0 0 1 1145.24 184.50
  L 1222.97 184.50
  A 1.01 1.00 17.6 0 0 1223.79 184.08
  L 1244.36 154.98
  Q 1245.53 153.32 1243.50 153.40
  Q 1231.87 153.87 1220.24 153.72
  C 1193.33 153.37 1166.42 153.44 1139.59 153.61
  A 0.98 0.96 24.3 0 0 1138.96 153.84
  L 1099.88 186.42
  A 1.00 1.00 0.0 0 0 1099.52 187.19
  L 1099.54 223.25"
/>
<path stroke="#c9cbc4" vector-effect="non-scaling-stroke" d="
  M 1206.47 217.71
  Q 1163.94 218.84 1121.41 218.26
  C 1116.48 218.20 1108.98 219.10 1102.58 218.20
  A 0.99 0.97 22.8 0 0 1101.65 218.57
  Q 1100.93 219.49 1101.01 220.70
  A 1.00 0.99 60.6 0 1 1100.84 221.32
  L 1099.54 223.25"
/>
<path stroke="#aaaca3" vector-effect="non-scaling-stroke" d="
  M 1144.20 247.67
  Q 1137.20 246.89 1130.18 246.96
  C 1121.22 247.05 1113.66 246.79 1105.44 247.44
  Q 1103.00 247.63 1101.46 249.50"
/>
<path stroke="#85867c" vector-effect="non-scaling-stroke" d="
  M 1231.81 262.13
  Q 1211.34 263.10 1190.84 262.87
  C 1189.75 262.86 1188.30 263.20 1186.75 263.20
  Q 1156.14 263.31 1144.50 263.23
  C 1134.15 263.15 1123.26 262.08 1119.96 264.75"
/>
<path stroke="#5d5e59" vector-effect="non-scaling-stroke" d="
  M 152.98 220.58
  L 153.03 255.32"
/>
<path stroke="#4d4e4a" vector-effect="non-scaling-stroke" d="
  M 153.03 255.32
  L 153.04 267.50"
/>
<path stroke="#383933" vector-effect="non-scaling-stroke" d="
  M 153.04 267.50
  L 153.21 279.76
  A 1.01 1.00 89.4 0 0 154.21 280.75
  L 190.56 280.75
  A 1.01 1.00 90.0 0 0 191.56 279.74
  L 191.48 268.02"
/>
<path stroke="#4d4e4a" vector-effect="non-scaling-stroke" d="
  M 191.48 268.02
  L 191.46 256.25"
/>
<path stroke="#5d5e59" vector-effect="non-scaling-stroke" d="
  M 191.46 256.25
  L 191.71 248.72
  A 1.01 1.00 -88.8 0 1 192.71 247.75
  L 264.25 247.75
  A 1.01 0.95 23.4 0 0 264.89 247.52
  L 298.50 219.54"
/>
<path stroke="#6c6d6b" vector-effect="non-scaling-stroke" d="
  M 298.50 219.54
  L 303.64 215.24
  A 1.00 1.00 0.0 0 0 304.00 214.47
  L 304.00 186.94
  A 1.00 1.00 0.0 0 0 303.64 186.17
  L 264.68 153.86
  A 1.01 1.00 64.5 0 0 264.04 153.63
  L 154.01 153.45
  A 1.00 1.00 0.0 0 0 153.01 154.45
  L 152.98 220.58"
/>
<path stroke="#c9cbc4" vector-effect="non-scaling-stroke" d="
  M 298.50 219.54
  L 296.44 217.74
  A 0.98 0.97 64.3 0 0 295.74 217.49
  C 289.39 217.76 283.06 217.03 276.74 217.98
  Q 272.87 218.56 268.96 218.31
  A 0.99 0.98 -72.6 0 0 268.05 218.79
  Q 267.01 220.50 265.21 219.25"
/>
<path stroke="#6c6d6b" vector-effect="non-scaling-stroke" d="
  M 265.21 219.25
  L 265.24 182.81
  A 1.01 1.01 0.0 0 0 264.23 181.80
  L 192.56 182.07
  A 1.01 1.00 90.0 0 0 191.56 183.08
  L 191.68 219.48"
/>
<path stroke="#c9cbc4" vector-effect="non-scaling-stroke" d="
  M 191.68 219.48
  Q 186.56 218.50 181.32 218.71
  Q 176.68 218.89 173.16 218.68
  Q 162.94 218.07 152.98 220.58"
/>
<path stroke="#aaaca3" vector-effect="non-scaling-stroke" d="
  M 191.46 256.25
  C 191.08 253.62 187.18 255.33 185.25 255.18
  C 176.41 254.49 167.25 255.92 158.53 254.38
  Q 155.77 253.90 153.03 255.32"
/>
<path stroke="#5d5e59" vector-effect="non-scaling-stroke" d="
  M 265.21 219.25
  L 191.68 219.48"
/>
<path stroke="#85867c" vector-effect="non-scaling-stroke" d="
  M 191.48 268.02
  L 160.95 267.43
  A 1.07 1.04 -64.9 0 0 160.26 267.69
  C 159.75 268.16 154.33 267.50 153.04 267.50"
/>
<path stroke="#5d5e59" vector-effect="non-scaling-stroke" d="
  M 740.54 225.75
  L 740.50 247.53
  A 1.00 1.00 0.0 0 0 740.86 248.30
  L 746.25 252.79"
/>
<path stroke="#4d4e4a" vector-effect="non-scaling-stroke" d="
  M 746.25 252.79
  L 769.72 271.60"
/>
<path stroke="#383933" vector-effect="non-scaling-stroke" d="
  M 769.72 271.60
  Q 774.64 276.80 779.93 280.57
  A 0.99 0.98 62.8 0 0 780.51 280.76
  L 884.09 280.76
  Q 885.86 280.76 884.95 279.25
  Q 882.12 274.51 878.76 270.85"
/>
<path stroke="#4d4e4a" vector-effect="non-scaling-stroke" d="
  M 878.76 270.85
  Q 871.85 260.01 864.49 250.45
  A 1.02 1.00 -18.4 0 0 863.69 250.06
  L 785.03 250.08"
/>
<path stroke="#5d5e59" vector-effect="non-scaling-stroke" d="
  M 785.03 250.08
  Q 784.45 240.53 784.87 231.19
  A 1.00 0.99 1.2 0 1 785.87 230.24
  L 846.20 230.26
  A 1.00 1.00 0.0 0 0 847.20 229.26
  L 847.21 222.00"
/>
<path stroke="#6c6d6b" vector-effect="non-scaling-stroke" d="
  M 847.21 222.00
  L 847.11 205.24
  A 1.00 1.00 0.0 0 0 846.11 204.24
  L 785.75 204.26
  A 1.00 1.00 0.0 0 1 784.75 203.26
  L 784.75 185.50
  A 1.00 1.00 0.0 0 1 785.75 184.50
  L 863.82 184.50
  A 1.00 0.99 -72.0 0 0 864.63 184.08
  L 885.11 155.12
  Q 886.11 153.70 884.38 153.54
  Q 882.62 153.38 880.85 153.50
  Q 876.26 153.80 875.63 153.79
  Q 828.10 153.35 780.55 153.53
  A 0.95 0.95 0.0 0 0 779.92 153.77
  L 740.90 186.28
  A 1.00 1.00 0.0 0 0 740.54 187.05
  L 740.54 225.75"
/>
<path stroke="#c9cbc4" vector-effect="non-scaling-stroke" d="
  M 847.21 222.00
  Q 843.72 221.30 841.32 223.25
  A 1.03 1.02 24.4 0 1 840.70 223.48
  Q 805.27 223.90 769.84 223.61
  C 761.85 223.54 751.77 223.91 742.73 223.71
  A 1.01 1.00 -69.3 0 0 741.94 224.07
  L 740.54 225.75"
/>
<path stroke="#aaaca3" vector-effect="non-scaling-stroke" d="
  M 785.03 250.08
  Q 782.11 252.07 778.69 251.73
  C 769.01 250.78 758.81 251.46 749.04 251.68
  A 1.00 0.99 14.5 0 0 748.20 252.17
  Q 747.61 253.18 746.25 252.79"
/>
<path stroke="#85867c" vector-effect="non-scaling-stroke" d="
  M 878.76 270.85
  L 769.72 271.60"
/>
<path stroke="#5d5e59" vector-effect="non-scaling-stroke" d="
  M 917.54 221.75
  L 917.50 246.69"
/>
<path stroke="#4d4e4a" vector-effect="non-scaling-stroke" d="
  M 917.50 246.69
  L 917.54 263.00"
/>
<path stroke="#383933" vector-effect="non-scaling-stroke" d="
  M 917.54 263.00
  L 917.55 279.75
  A 1.00 1.00 0.0 0 0 918.55 280.75
  L 1033.54 280.75
  A 1.01 1.00 -64.5 0 0 1034.18 280.52
  L 1053.25 264.54"
/>
<path stroke="#4d4e4a" vector-effect="non-scaling-stroke" d="
  M 1053.25 264.54
  L 1072.79 248.29
  A 1.00 0.98 -19.4 0 0 1073.15 247.55
  L 1073.24 244.38"
/>
<path stroke="#6c6d6b" vector-effect="non-scaling-stroke" d="
  M 1073.24 244.38
  L 1073.24 187.06
  A 1.00 1.00 0.0 0 0 1072.88 186.29
  L 1033.65 153.69
  A 0.95 0.95 0.0 0 0 1032.98 153.46
  C 1000.06 154.70 972.54 152.74 928.36 153.76
  Q 923.48 153.87 918.57 153.62
  A 1.00 1.00 0.0 0 0 917.52 154.62
  L 917.54 221.75"
/>
<path stroke="#b9bab5" vector-effect="non-scaling-stroke" d="
  M 1073.24 244.38
  Q 1053.93 242.07 1034.50 244.13"
/>
<path stroke="#6c6d6b" vector-effect="non-scaling-stroke" d="
  M 1034.50 244.13
  L 1034.47 185.50
  A 1.00 1.00 0.0 0 0 1033.47 184.50
  L 957.05 184.50
  A 1.00 1.00 0.0 0 0 956.05 185.50
  L 955.96 214.75"
/>
<path stroke="#c9cbc4" vector-effect="non-scaling-stroke" d="
  M 955.96 214.75
  Q 955.42 216.11 955.40 217.63
  A 1.00 1.00 0.0 0 1 954.01 218.53
  Q 952.47 217.87 950.75 217.76
  Q 946.64 217.48 942.51 217.47
  C 938.31 217.46 933.37 218.73 928.52 218.50
  A 0.40 0.36 -67.7 0 0 928.23 218.64
  C 928.00 218.95 928.07 218.88 927.78 218.80
  Q 923.89 217.70 919.78 217.87
  A 1.01 1.01 0.0 0 0 918.90 218.48
  L 917.54 221.75"
/>
<path stroke="#aaaca3" vector-effect="non-scaling-stroke" d="
  M 955.96 241.50
  L 955.72 244.73
  A 1.04 0.98 70.0 0 1 955.46 245.33
  Q 954.41 246.47 953.01 245.98
  A 1.00 1.00 0.0 0 0 952.44 245.95
  C 948.53 246.92 944.62 246.00 941.59 245.93
  Q 929.54 245.63 917.50 246.69"
/>
<path stroke="#4d4e4a" vector-effect="non-scaling-stroke" d="
  M 1034.50 244.13
  L 1034.39 249.02
  A 1.01 1.00 -89.1 0 1 1033.39 250.00
  L 957.05 250.00
  A 1.00 1.00 0.0 0 1 956.05 249.01
  L 955.96 241.50"
/>
<path stroke="#5d5e59" vector-effect="non-scaling-stroke" d="
  M 955.96 241.50
  L 955.96 214.75"
/>
<path stroke="#85867c" vector-effect="non-scaling-stroke" d="
  M 1053.25 264.54
  Q 1050.53 262.70 1046.00 262.69
  Q 1003.66 262.55 961.32 262.86
  C 948.40 262.95 932.14 262.63 917.54 263.00"
/>
<path stroke="#5d5e59" vector-effect="non-scaling-stroke" d="
  M 1328.72 219.12
  L 1304.75 246.21"
/>
<path stroke="#4d4e4a" vector-effect="non-scaling-stroke" d="
  M 1304.75 246.21
  L 1287.19 265.99"
/>
<path stroke="#383933" vector-effect="non-scaling-stroke" d="
  M 1287.19 265.99
  Q 1280.85 272.18 1275.01 279.44
  Q 1273.96 280.74 1275.63 280.74
  L 1324.82 280.76
  A 1.02 1.01 20.9 0 0 1325.57 280.43
  L 1337.75 266.79"
/>
<path stroke="#4d4e4a" vector-effect="non-scaling-stroke" d="
  M 1337.75 266.79
  L 1354.50 248.04"
/>
<path stroke="#5d5e59" vector-effect="non-scaling-stroke" d="
  M 1354.50 248.04
  Q 1356.21 244.92 1358.00 248.04"
/>
<path stroke="#4d4e4a" vector-effect="non-scaling-stroke" d="
  M 1358.00 248.04
  L 1383.19 275.78"
/>
<path stroke="#383933" vector-effect="non-scaling-stroke" d="
  M 1383.19 275.78
  C 1384.85 278.62 1386.73 281.01 1390.32 280.96
  Q 1412.33 280.62 1434.35 280.74
  Q 1436.53 280.76 1435.11 279.09
  L 1430.75 273.99"
/>
<path stroke="#4d4e4a" vector-effect="non-scaling-stroke" d="
  M 1430.75 273.99
  Q 1418.58 259.10 1406.35 245.77"
/>
<path stroke="#5d5e59" vector-effect="non-scaling-stroke" d="
  M 1406.35 245.77
  L 1382.13 217.36"
/>
<path stroke="#6c6d6b" vector-effect="non-scaling-stroke" d="
  M 1382.13 217.36
  L 1437.58 155.24
  Q 1439.07 153.57 1436.83 153.57
  L 1387.80 153.59
  A 1.01 0.99 -68.5 0 0 1387.06 153.92
  L 1357.07 187.49
  A 1.00 1.00 0.0 0 1 1355.58 187.49
  L 1325.44 153.81
  A 1.02 1.01 -20.9 0 0 1324.69 153.48
  L 1275.82 153.55
  Q 1273.60 153.55 1275.08 155.21
  Q 1302.16 185.65 1329.29 215.87
  C 1330.54 217.26 1330.36 218.26 1328.72 219.12"
/>
<path stroke="#c9cbc4" vector-effect="non-scaling-stroke" d="
  M 1382.13 217.36
  Q 1376.93 219.35 1371.48 218.85
  Q 1364.53 218.21 1364.49 218.21
  Q 1346.61 217.90 1328.72 219.12"
/>
<path stroke="#aaaca3" vector-effect="non-scaling-stroke" d="
  M 1406.35 245.77
  Q 1383.93 247.46 1361.53 246.80
  C 1360.41 246.77 1358.97 247.54 1358.00 248.04"
/>
<path stroke="#aaaca3" vector-effect="non-scaling-stroke" d="
  M 1354.50 248.04
  C 1351.80 245.06 1347.36 246.81 1343.90 246.77
  Q 1327.33 246.58 1310.74 246.46
  Q 1308.12 246.45 1306.94 246.68
  Q 1305.74 246.92 1304.75 246.21"
/>
<path stroke="#85867c" vector-effect="non-scaling-stroke" d="
  M 1430.75 273.99
  Q 1406.97 274.35 1383.19 275.78"
/>
<path stroke="#85867c" vector-effect="non-scaling-stroke" d="
  M 1337.75 266.79
  C 1331.21 265.09 1324.67 266.07 1319.20 266.06
  Q 1303.21 266.06 1287.19 265.99"
/>
<path stroke="#5d5e59" vector-effect="non-scaling-stroke" d="
  M 1261.08 188.83
  A 0.33 0.33 0.0 0 0 1260.56 188.86
  L 1240.64 217.00
  A 0.33 0.33 0.0 0 0 1240.64 217.38
  L 1260.58 245.61
  A 0.33 0.33 0.0 0 0 1261.10 245.64
  L 1286.29 217.45
  A 0.33 0.33 0.0 0 0 1286.29 217.01
  L 1261.08 188.83"
/>
<path stroke="#808080" vector-effect="non-scaling-stroke" d="
  M 261.19 186.56
  A 0.31 0.31 0.0 0 0 260.88 186.25
  L 196.06 186.25
  A 0.31 0.31 0.0 0 0 195.75 186.56
  L 195.75 214.94
  A 0.31 0.31 0.0 0 0 196.06 215.25
  L 260.88 215.25
  A 0.31 0.31 0.0 0 0 261.19 214.94
  L 261.19 186.56"
/>
<path stroke="#5d5e59" vector-effect="non-scaling-stroke" d="
  M 480.29 220.00
  Q 476.80 241.51 457.71 251.75"
/>
<path stroke="#4d4e4a" vector-effect="non-scaling-stroke" d="
  M 457.71 251.75
  C 439.32 260.95 416.44 259.57 400.25 246.41
  A 1.00 1.00 0.0 0 0 399.17 246.29
  L 364.98 263.23
  A 1.01 1.00 -34.7 0 0 364.69 264.82
  Q 371.88 272.42 381.00 278.04"
/>
<path stroke="#2a2a26" vector-effect="non-scaling-stroke" d="
  M 381.00 278.04
  C 413.13 297.82 453.93 297.35 485.75 277.31"
/>
<path stroke="#4d4e4a" vector-effect="non-scaling-stroke" d="
  M 485.75 277.31
  Q 500.44 268.10 509.75 253.54"
/>
<path stroke="#5d5e59" vector-effect="non-scaling-stroke" d="
  M 509.75 253.54
  Q 519.94 238.35 520.74 219.15"
/>
<path stroke="#6c6d6b" vector-effect="non-scaling-stroke" d="
  M 520.74 219.15
  Q 521.33 204.23 514.99 189.96
  A 0.99 0.99 0.0 0 0 513.64 189.47
  L 479.49 206.40
  A 1.00 0.99 69.5 0 0 478.97 207.55
  Q 480.57 213.75 480.29 220.00"
/>
<path stroke="#c9cbc4" vector-effect="non-scaling-stroke" d="
  M 520.74 219.15
  Q 502.01 218.26 483.30 218.77
  A 1.03 1.02 24.4 0 0 482.68 219.00
  Q 481.57 219.93 480.29 220.00"
/>
<path stroke="#aaaca3" vector-effect="non-scaling-stroke" d="
  M 509.75 253.54
  Q 505.80 252.72 501.82 252.86
  C 489.01 253.30 476.08 252.99 463.26 253.01
  C 461.92 253.01 456.16 254.82 457.71 251.75"
/>
<path stroke="#777870" vector-effect="non-scaling-stroke" d="
  M 485.75 277.31
  Q 480.84 275.58 475.76 275.98
  Q 469.06 276.50 468.70 276.50
  Q 428.73 276.49 388.75 276.46
  Q 384.68 276.46 381.00 278.04"
/>
<path stroke="#808080" vector-effect="non-scaling-stroke" d="
  M 1030.25 188.93
  A 0.28 0.28 0.0 0 0 1029.97 188.65
  L 960.53 188.65
  A 0.28 0.28 0.0 0 0 960.25 188.93
  L 960.25 245.47
  A 0.28 0.28 0.0 0 0 960.53 245.75
  L 1029.97 245.75
  A 0.28 0.28 0.0 0 0 1030.25 245.47
  L 1030.25 188.93"
/>
<path stroke="#808080" vector-effect="non-scaling-stroke" d="
  M 248.49 197.28
  A 0.28 0.28 0.0 0 0 248.21 197.00
  L 208.79 197.00
  A 0.28 0.28 0.0 0 0 208.51 197.28
  L 208.51 203.98
  A 0.28 0.28 0.0 0 0 208.79 204.26
  L 248.21 204.26
  A 0.28 0.28 0.0 0 0 248.49 203.98
  L 248.49 197.28"
/>
<path stroke="#808080" vector-effect="non-scaling-stroke" d="
  M 1018.7793 200.4811
  A 0.27 0.27 0.0 0 0 1018.5097 200.2106
  L 972.0298 200.1295
  A 0.27 0.27 0.0 0 0 971.7593 200.3990
  L 971.7007 233.9589
  A 0.27 0.27 0.0 0 0 971.9703 234.2294
  L 1018.4502 234.3105
  A 0.27 0.27 0.0 0 0 1018.7207 234.0410
  L 1018.7793 200.4811"
/>
<path stroke="#aaaca3" vector-effect="non-scaling-stroke" d="
  M 1271.29 207.25
  L 1261.99 196.79
  A 1.00 0.99 41.6 0 0 1260.43 196.88
  L 1246.39 216.71
  A 0.99 0.99 0.0 0 0 1246.39 217.87
  L 1254.91 229.73"
/>
<path stroke="#6c6d6b" vector-effect="non-scaling-stroke" d="
  M 455.0273 216.8738
  A 22.04 18.91 -0.9 0 0 432.6930 198.3123
  A 22.04 18.91 -0.9 0 0 410.9527 217.5662
  A 22.04 18.91 -0.9 0 0 433.2870 236.1277
  A 22.04 18.91 -0.9 0 0 455.0273 216.8738"
/>
</g>
<path fill="#babcb2" d="
  M 885.00 70.21
  L 884.35 71.30
  A 1.04 0.98 -31.3 0 0 884.21 71.81
  L 884.34 114.91
  A 1.01 1.01 0.0 0 0 885.31 115.91
  L 893.75 116.22
  L 1046.11 116.25
  A 1.01 1.00 64.5 0 1 1046.75 116.48
  L 1085.77 148.88
  A 1.00 1.00 0.0 0 0 1087.05 148.88
  L 1126.10 116.48
  A 1.01 1.00 -64.5 0 1 1126.74 116.25
  L 1341.06 116.25
  A 1.01 0.99 68.5 0 1 1341.80 116.58
  L 1355.59 132.02
  A 1.00 0.99 -45.0 0 0 1357.08 132.01
  L 1370.74 116.59
  A 1.01 1.00 -69.1 0 1 1371.49 116.25
  Q 1446.40 116.25 1521.88 116.25
  C 1522.48 116.25 1522.78 116.51 1523.04 117.00
  Q 1522.52 117.43 1521.82 117.47
  A 1.01 1.00 19.5 0 0 1521.12 117.80
  L 1432.35 217.06
  A 1.01 1.01 0.0 0 0 1432.33 218.38
  L 1441.25 228.79
  Q 1442.26 230.40 1442.53 230.71
  Q 1500.19 297.67 1515.45 315.55
  Q 1517.47 317.93 1518.05 318.47
  L 1370.99 318.57
  L 1366.26 313.49
  L 1357.00 303.28
  A 1.00 1.00 0.0 0 0 1355.52 303.28
  L 1341.75 318.46
  Q 1234.76 318.51 1127.77 318.56
  C 1127.65 318.56 1127.13 318.74 1127.00 318.79
  Q 1112.74 306.23 1097.47 295.06
  Q 1092.76 290.45 1086.80 286.16
  A 1.01 1.00 -47.1 0 0 1085.57 286.21
  L 1046.50 318.46
  L 526.79 318.50
  Q 527.10 315.53 526.25 312.71
  L 526.02 295.57
  Q 525.99 293.32 524.34 294.85
  Q 496.63 320.52 459.24 327.69
  C 417.75 335.64 375.68 324.73 343.79 296.98
  Q 343.38 296.63 343.04 296.77
  Q 331.42 283.66 322.06 268.93
  Q 321.85 268.60 321.14 268.31
  L 315.33 255.75
  A 1.00 1.00 0.0 0 0 313.79 255.39
  L 277.50 285.29
  Q 253.96 285.22 230.42 285.25
  C 229.57 285.25 229.13 285.75 229.79 286.50
  Q 228.69 288.49 228.75 291.25
  Q 229.00 301.93 228.71 318.50
  L 116.18 318.57
  C 115.91 317.38 115.50 316.39 115.50 315.11
  Q 115.50 215.82 115.50 117.25
  A 1.00 1.00 0.0 0 1 116.50 116.25
  L 276.98 116.25
  A 1.01 1.00 64.5 0 1 277.62 116.48
  L 326.23 156.91
  A 1.00 1.00 0.0 0 0 327.68 156.73
  C 371.11 96.89 461.47 87.22 517.66 134.62
  Q 521.49 137.86 525.10 140.94
  Q 526.75 142.35 526.75 140.18
  L 526.75 117.25
  A 1.00 1.00 0.0 0 1 527.75 116.25
  L 751.27 116.25
  A 1.00 1.00 0.0 0 0 752.27 115.25
  L 752.24 90.64
  A 1.00 0.99 85.7 0 1 753.08 89.65
  L 883.82 69.35
  A 1.00 1.00 0.0 0 1 884.85 69.85
  Q 884.94 70.01 885.00 70.21
  Z
  M 529.29 152.01
  Q 496.59 114.90 446.73 109.76
  Q 416.83 106.68 388.59 116.62
  Q 350.90 129.88 328.49 162.85
  A 1.01 1.01 0.0 0 1 327.02 163.06
  L 276.44 120.98
  A 1.01 1.00 64.5 0 0 275.80 120.75
  L 121.07 120.75
  A 1.00 1.00 0.0 0 0 120.07 121.76
  Q 120.27 144.94 120.04 183.00
  Q 119.79 221.83 120.28 290.92
  Q 120.29 292.45 119.98 301.94
  Q 119.80 307.24 120.22 312.61
  A 1.00 0.99 87.8 0 0 121.21 313.53
  L 223.51 313.50
  A 1.00 0.99 -0.3 0 0 224.51 312.50
  L 224.47 281.49
  A 1.00 1.00 0.0 0 1 225.47 280.49
  L 275.86 280.60
  A 1.01 1.00 -64.5 0 0 276.50 280.37
  L 315.82 247.81
  A 1.00 0.99 -29.1 0 1 317.40 248.26
  Q 323.01 264.79 333.76 278.55
  C 362.13 314.85 407.82 330.63 453.15 323.77
  Q 499.18 316.80 529.64 282.25
  Q 531.05 280.66 531.04 282.78
  L 530.98 312.41
  A 1.01 1.00 -89.4 0 0 531.96 313.42
  Q 566.72 313.99 588.44 313.68
  C 609.08 313.39 627.39 313.81 646.57 313.72
  C 778.33 313.14 905.94 313.50 1045.18 313.50
  A 1.01 1.00 -64.5 0 0 1045.82 313.27
  L 1085.80 280.18
  A 1.00 1.00 0.0 0 1 1087.08 280.18
  L 1126.95 313.27
  A 1.01 1.00 64.5 0 0 1127.59 313.50
  L 1339.65 313.50
  A 1.02 1.01 20.9 0 0 1340.40 313.17
  L 1355.56 296.13
  A 1.01 1.01 0.0 0 1 1357.06 296.13
  L 1372.16 313.16
  A 1.01 1.00 69.1 0 0 1372.91 313.50
  L 1505.93 313.51
  Q 1508.11 313.51 1506.69 311.85
  L 1426.32 218.29
  A 1.01 1.00 45.7 0 1 1426.33 216.97
  L 1510.87 122.42
  Q 1512.36 120.75 1510.13 120.75
  L 1373.19 120.75
  A 1.00 0.97 20.0 0 0 1372.45 121.08
  L 1357.02 138.30
  A 1.00 1.00 0.0 0 1 1355.53 138.30
  L 1340.16 121.08
  A 1.02 1.01 -20.9 0 0 1339.41 120.75
  L 1127.84 120.75
  A 1.01 1.00 -64.5 0 0 1127.20 120.98
  L 1087.04 154.38
  A 1.00 1.00 0.0 0 1 1085.76 154.38
  L 1045.57 120.98
  A 1.01 1.00 64.5 0 0 1044.93 120.75
  L 881.00 120.75
  A 1.00 1.00 0.0 0 1 880.00 119.75
  L 880.00 75.55
  A 1.01 1.00 -4.4 0 0 878.84 74.56
  L 757.60 93.36
  A 1.00 1.00 0.0 0 0 756.75 94.35
  L 756.75 119.75
  A 1.00 1.00 0.0 0 1 755.75 120.75
  L 531.98 120.75
  A 1.00 1.00 0.0 0 0 530.98 121.75
  L 531.04 151.35
  Q 531.04 154.00 529.29 152.01
  Z"
/>
<path fill="#9a9b93" d="
  M 885.00 70.21
  L 893.71 80.49
  A 1.00 1.00 0.0 0 1 893.95 81.14
  L 893.75 116.22
  L 885.31 115.91
  A 1.01 1.01 0.0 0 1 884.34 114.91
  L 884.21 71.81
  A 1.04 0.98 -31.3 0 1 884.35 71.30
  L 885.00 70.21
  Z"
/>
<path fill="#000000" d="
  M 529.29 152.01
  Q 531.04 154.00 531.04 151.35
  L 530.98 121.75
  A 1.00 1.00 0.0 0 1 531.98 120.75
  L 755.75 120.75
  A 1.00 1.00 0.0 0 0 756.75 119.75
  L 756.75 94.35
  A 1.00 1.00 0.0 0 1 757.60 93.36
  L 878.84 74.56
  A 1.01 1.00 -4.4 0 1 880.00 75.55
  L 880.00 119.75
  A 1.00 1.00 0.0 0 0 881.00 120.75
  L 1044.93 120.75
  A 1.01 1.00 64.5 0 1 1045.57 120.98
  L 1085.76 154.38
  A 1.00 1.00 0.0 0 0 1087.04 154.38
  L 1127.20 120.98
  A 1.01 1.00 -64.5 0 1 1127.84 120.75
  L 1339.41 120.75
  A 1.02 1.01 -20.9 0 1 1340.16 121.08
  L 1355.53 138.30
  A 1.00 1.00 0.0 0 0 1357.02 138.30
  L 1372.45 121.08
  A 1.00 0.97 20.0 0 1 1373.19 120.75
  L 1510.13 120.75
  Q 1512.36 120.75 1510.87 122.42
  L 1426.33 216.97
  A 1.01 1.00 45.7 0 0 1426.32 218.29
  L 1506.69 311.85
  Q 1508.11 313.51 1505.93 313.51
  L 1372.91 313.50
  A 1.01 1.00 69.1 0 1 1372.16 313.16
  L 1357.06 296.13
  A 1.01 1.01 0.0 0 0 1355.56 296.13
  L 1340.40 313.17
  A 1.02 1.01 20.9 0 1 1339.65 313.50
  L 1127.59 313.50
  A 1.01 1.00 64.5 0 1 1126.95 313.27
  L 1087.08 280.18
  A 1.00 1.00 0.0 0 0 1085.80 280.18
  L 1045.82 313.27
  A 1.01 1.00 -64.5 0 1 1045.18 313.50
  C 905.94 313.50 778.33 313.14 646.57 313.72
  C 627.39 313.81 609.08 313.39 588.44 313.68
  Q 566.72 313.99 531.96 313.42
  A 1.01 1.00 -89.4 0 1 530.98 312.41
  L 531.04 282.78
  Q 531.05 280.66 529.64 282.25
  Q 499.18 316.80 453.15 323.77
  C 407.82 330.63 362.13 314.85 333.76 278.55
  Q 323.01 264.79 317.40 248.26
  A 1.00 0.99 -29.1 0 0 315.82 247.81
  L 276.50 280.37
  A 1.01 1.00 -64.5 0 1 275.86 280.60
  L 225.47 280.49
  A 1.00 1.00 0.0 0 0 224.47 281.49
  L 224.51 312.50
  A 1.00 0.99 -0.3 0 1 223.51 313.50
  L 121.21 313.53
  A 1.00 0.99 87.8 0 1 120.22 312.61
  Q 119.80 307.24 119.98 301.94
  Q 120.29 292.45 120.28 290.92
  Q 119.79 221.83 120.04 183.00
  Q 120.27 144.94 120.07 121.76
  A 1.00 1.00 0.0 0 1 121.07 120.75
  L 275.80 120.75
  A 1.01 1.00 64.5 0 1 276.44 120.98
  L 327.02 163.06
  A 1.01 1.01 0.0 0 0 328.49 162.85
  Q 350.90 129.88 388.59 116.62
  Q 416.83 106.68 446.73 109.76
  Q 496.59 114.90 529.29 152.01
  Z
  M 863.07 138.00
  A 0.32 0.32 0.0 0 1 862.75 137.68
  L 862.75 94.73
  A 0.32 0.32 0.0 0 0 862.38 94.42
  L 774.27 108.06
  A 0.32 0.32 0.0 0 0 774.00 108.37
  L 774.00 138.15
  A 0.32 0.32 0.0 0 1 773.88 138.40
  L 724.87 179.15
  A 0.32 0.32 0.0 0 0 724.75 179.40
  L 724.75 255.17
  A 0.32 0.32 0.0 0 0 724.87 255.42
  L 774.36 296.43
  A 0.32 0.32 0.0 0 0 774.57 296.50
  L 1039.15 296.50
  A 0.32 0.32 0.0 0 0 1039.36 296.43
  L 1086.21 257.60
  A 0.32 0.32 0.0 0 1 1086.61 257.60
  L 1133.52 296.44
  A 0.32 0.32 0.0 0 0 1133.73 296.51
  L 1332.16 296.52
  A 0.32 0.32 0.0 0 0 1332.40 296.41
  L 1356.02 269.90
  A 0.32 0.32 0.0 0 1 1356.50 269.90
  L 1380.26 296.39
  A 0.32 0.32 0.0 0 0 1380.50 296.50
  L 1470.25 296.51
  A 0.32 0.32 0.0 0 0 1470.50 295.98
  L 1403.17 217.64
  A 0.32 0.32 0.0 0 1 1403.18 217.22
  L 1473.48 138.52
  A 0.32 0.32 0.0 0 0 1473.24 137.99
  L 1380.43 138.01
  A 0.32 0.32 0.0 0 0 1380.19 138.12
  L 1356.51 164.56
  A 0.32 0.32 0.0 0 1 1356.03 164.56
  L 1332.43 138.11
  A 0.32 0.32 0.0 0 0 1332.19 138.00
  L 1133.62 138.00
  A 0.32 0.32 0.0 0 0 1133.41 138.07
  L 1086.64 177.01
  A 0.32 0.32 0.0 0 1 1086.24 177.01
  L 1039.42 138.07
  A 0.32 0.32 0.0 0 0 1039.21 138.00
  L 863.07 138.00
  Z
  M 536.48 217.22
  A 103.49 91.09 0.0 0 0 432.99 126.13
  A 103.49 91.09 0.0 0 0 329.50 217.22
  A 103.49 91.09 0.0 0 0 432.99 308.31
  A 103.49 91.09 0.0 0 0 536.48 217.22
  Z
  M 618.80 170.82
  A 0.32 0.32 0.0 0 1 618.25 170.60
  L 618.25 138.33
  A 0.32 0.32 0.0 0 0 617.93 138.01
  L 548.57 137.98
  A 0.32 0.32 0.0 0 0 548.25 138.30
  L 548.25 296.18
  A 0.32 0.32 0.0 0 0 548.57 296.50
  L 617.93 296.50
  A 0.32 0.32 0.0 0 0 618.25 296.18
  L 618.24 258.15
  A 0.32 0.32 0.0 0 1 618.79 257.93
  L 656.11 296.40
  A 0.32 0.32 0.0 0 0 656.34 296.50
  L 751.05 296.50
  A 0.32 0.32 0.0 0 0 751.28 295.95
  L 669.20 213.60
  A 0.32 0.32 0.0 0 1 669.21 213.14
  L 749.29 138.55
  A 0.32 0.32 0.0 0 0 749.07 138.00
  L 651.78 137.98
  A 0.32 0.32 0.0 0 0 651.56 138.07
  L 618.80 170.82
  Z
  M 207.24 263.84
  A 0.34 0.34 0.0 0 1 207.58 263.50
  L 269.90 263.50
  A 0.34 0.34 0.0 0 0 270.11 263.42
  L 319.63 222.38
  A 0.34 0.34 0.0 0 0 319.75 222.12
  L 319.75 179.35
  A 0.34 0.34 0.0 0 0 319.63 179.09
  L 270.21 138.08
  A 0.34 0.34 0.0 0 0 270.00 138.00
  L 137.59 138.00
  A 0.34 0.34 0.0 0 0 137.25 138.34
  L 137.25 296.16
  A 0.34 0.34 0.0 0 0 137.59 296.50
  L 206.94 296.50
  A 0.34 0.34 0.0 0 0 207.28 296.16
  L 207.24 263.84
  Z"
/>
<path fill="#ffffff" d="
  M 863.07 138.00
  L 1039.21 138.00
  A 0.32 0.32 0.0 0 1 1039.42 138.07
  L 1086.24 177.01
  A 0.32 0.32 0.0 0 0 1086.64 177.01
  L 1133.41 138.07
  A 0.32 0.32 0.0 0 1 1133.62 138.00
  L 1332.19 138.00
  A 0.32 0.32 0.0 0 1 1332.43 138.11
  L 1356.03 164.56
  A 0.32 0.32 0.0 0 0 1356.51 164.56
  L 1380.19 138.12
  A 0.32 0.32 0.0 0 1 1380.43 138.01
  L 1473.24 137.99
  A 0.32 0.32 0.0 0 1 1473.48 138.52
  L 1403.18 217.22
  A 0.32 0.32 0.0 0 0 1403.17 217.64
  L 1470.50 295.98
  A 0.32 0.32 0.0 0 1 1470.25 296.51
  L 1380.50 296.50
  A 0.32 0.32 0.0 0 1 1380.26 296.39
  L 1356.50 269.90
  A 0.32 0.32 0.0 0 0 1356.02 269.90
  L 1332.40 296.41
  A 0.32 0.32 0.0 0 1 1332.16 296.52
  L 1133.73 296.51
  A 0.32 0.32 0.0 0 1 1133.52 296.44
  L 1086.61 257.60
  A 0.32 0.32 0.0 0 0 1086.21 257.60
  L 1039.36 296.43
  A 0.32 0.32 0.0 0 1 1039.15 296.50
  L 774.57 296.50
  A 0.32 0.32 0.0 0 1 774.36 296.43
  L 724.87 255.42
  A 0.32 0.32 0.0 0 1 724.75 255.17
  L 724.75 179.40
  A 0.32 0.32 0.0 0 1 724.87 179.15
  L 773.88 138.40
  A 0.32 0.32 0.0 0 0 774.00 138.15
  L 774.00 108.37
  A 0.32 0.32 0.0 0 1 774.27 108.06
  L 862.38 94.42
  A 0.32 0.32 0.0 0 1 862.75 94.73
  L 862.75 137.68
  A 0.32 0.32 0.0 0 0 863.07 138.00
  Z
  M 785.78 117.87
  A 0.32 0.32 0.0 0 0 785.51 118.18
  L 785.48 138.39
  A 0.32 0.32 0.0 0 0 785.84 138.71
  L 850.97 131.44
  A 0.32 0.32 0.0 0 0 851.25 131.12
  L 851.25 108.11
  A 0.32 0.32 0.0 0 0 850.88 107.80
  L 785.78 117.87
  Z
  M 1148.58 199.97
  A 0.33 0.33 0.0 0 1 1148.25 199.64
  L 1148.25 188.92
  A 0.33 0.33 0.0 0 1 1148.58 188.59
  L 1225.65 188.61
  A 0.33 0.33 0.0 0 0 1225.92 188.47
  L 1253.06 150.01
  A 0.33 0.33 0.0 0 0 1252.79 149.49
  L 1137.63 149.50
  A 0.33 0.33 0.0 0 0 1137.42 149.58
  L 1095.37 184.59
  A 0.33 0.33 0.0 0 0 1095.25 184.84
  L 1095.25 249.74
  A 0.33 0.33 0.0 0 0 1095.37 250.00
  L 1137.49 284.92
  A 0.33 0.33 0.0 0 0 1137.70 285.00
  L 1252.81 285.00
  A 0.33 0.33 0.0 0 0 1253.08 284.48
  L 1225.81 245.88
  A 0.33 0.33 0.0 0 0 1225.54 245.74
  L 1148.58 245.76
  A 0.33 0.33 0.0 0 1 1148.25 245.43
  L 1148.25 234.57
  A 0.33 0.33 0.0 0 1 1148.58 234.24
  L 1210.19 234.28
  A 0.33 0.33 0.0 0 0 1210.52 233.95
  L 1210.49 200.00
  A 0.33 0.33 0.0 0 0 1210.16 199.67
  L 1148.58 199.97
  Z
  M 789.00 244.75
  L 789.00 235.24
  A 1.00 1.00 0.0 0 1 790.00 234.24
  L 850.53 234.27
  A 1.01 1.00 0.0 0 0 851.54 233.27
  L 851.48 200.69
  A 1.00 1.00 0.0 0 0 850.48 199.69
  L 790.00 199.88
  A 1.00 0.99 89.7 0 1 789.00 198.88
  L 789.00 189.42
  A 1.00 1.00 0.0 0 1 790.01 188.42
  Q 805.51 188.67 821.00 188.73
  C 833.37 188.77 850.92 188.24 865.98 188.80
  A 1.00 0.98 -71.5 0 0 866.83 188.37
  L 893.14 151.08
  Q 894.25 149.50 892.32 149.50
  L 778.77 149.50
  A 1.01 1.00 -64.5 0 0 778.13 149.73
  L 736.37 184.42
  A 1.00 1.00 0.0 0 0 736.01 185.19
  L 736.01 249.36
  A 1.00 1.00 0.0 0 0 736.37 250.13
  L 778.19 284.79
  A 1.01 1.00 64.5 0 0 778.83 285.02
  L 892.36 284.99
  Q 894.29 284.99 893.18 283.42
  L 866.88 246.17
  A 1.01 1.00 72.4 0 0 866.06 245.74
  L 790.00 245.75
  A 1.00 1.00 0.0 0 1 789.00 244.75
  Z
  M 1077.50 184.74
  A 0.34 0.34 0.0 0 0 1077.38 184.48
  L 1035.42 149.58
  A 0.34 0.34 0.0 0 0 1035.21 149.50
  L 913.34 149.50
  A 0.34 0.34 0.0 0 0 913.00 149.84
  L 912.99 284.66
  A 0.34 0.34 0.0 0 0 913.33 285.00
  L 1035.14 285.00
  A 0.34 0.34 0.0 0 0 1035.35 284.92
  L 1077.38 250.08
  A 0.34 0.34 0.0 0 0 1077.50 249.82
  L 1077.50 184.74
  Z
  M 1355.51 253.40
  A 1.01 1.00 -45.2 0 1 1357.01 253.39
  L 1385.06 284.67
  A 1.02 1.01 -20.9 0 0 1385.81 285.00
  L 1443.87 285.00
  Q 1446.05 285.00 1444.63 283.35
  L 1388.37 217.92
  A 1.01 0.99 -44.6 0 1 1388.39 216.60
  L 1446.94 151.17
  Q 1448.44 149.50 1446.20 149.50
  L 1385.74 149.50
  A 1.02 1.01 20.9 0 0 1384.99 149.83
  L 1357.02 181.07
  A 1.00 1.00 0.0 0 1 1355.53 181.07
  L 1327.64 149.84
  A 1.01 1.00 69.1 0 0 1326.89 149.50
  L 1266.41 149.50
  Q 1264.17 149.50 1265.66 151.17
  L 1324.10 216.54
  A 1.00 0.99 -45.2 0 1 1324.10 217.87
  L 1265.65 283.33
  Q 1264.16 285.00 1266.39 285.00
  L 1326.82 285.00
  A 1.02 1.01 20.9 0 0 1327.57 284.67
  L 1355.51 253.40
  Z
  M 900.06 161.10
  L 872.61 199.87
  A 0.98 0.97 18.7 0 1 871.75 200.29
  L 863.79 199.95
  A 1.00 1.00 0.0 0 0 862.75 200.95
  L 862.75 233.25
  A 1.00 1.00 0.0 0 0 863.75 234.25
  L 871.94 234.25
  A 1.01 1.00 -17.6 0 1 872.76 234.67
  L 900.04 273.37
  Q 901.49 275.43 901.50 272.91
  L 901.51 161.56
  Q 901.51 159.05 900.06 161.10
  Z
  M 1231.46 234.26
  A 0.30 0.30 0.0 0 1 1231.71 234.39
  L 1259.00 273.06
  A 0.30 0.30 0.0 0 0 1259.47 273.09
  L 1309.24 217.45
  A 0.30 0.30 0.0 0 0 1309.24 217.05
  L 1259.46 161.33
  A 0.30 0.30 0.0 0 0 1258.99 161.36
  L 1231.69 199.99
  A 0.30 0.30 0.0 0 1 1231.44 200.12
  L 1222.57 200.01
  A 0.30 0.30 0.0 0 0 1222.27 200.31
  L 1222.22 234.00
  A 0.30 0.30 0.0 0 0 1222.52 234.30
  L 1231.46 234.26
  Z"
/>
<path fill="#000000" d="
  M 785.78 117.87
  L 850.88 107.80
  A 0.32 0.32 0.0 0 1 851.25 108.11
  L 851.25 131.12
  A 0.32 0.32 0.0 0 1 850.97 131.44
  L 785.84 138.71
  A 0.32 0.32 0.0 0 1 785.48 138.39
  L 785.51 118.18
  A 0.32 0.32 0.0 0 1 785.78 117.87
  Z
  M 847.00 113.07
  A 0.34 0.34 0.0 0 0 846.61 112.73
  L 790.04 121.51
  A 0.34 0.34 0.0 0 0 789.75 121.84
  L 789.75 133.65
  A 0.34 0.34 0.0 0 0 790.13 133.99
  L 846.70 127.65
  A 0.34 0.34 0.0 0 0 847.00 127.32
  L 847.00 113.07
  Z"
/>
<path fill="#d7d9d6" d="
  M 847.00 113.07
  L 847.00 127.32
  A 0.34 0.34 0.0 0 1 846.70 127.65
  L 790.13 133.99
  A 0.34 0.34 0.0 0 1 789.75 133.65
  L 789.75 121.84
  A 0.34 0.34 0.0 0 1 790.04 121.51
  L 846.61 112.73
  A 0.34 0.34 0.0 0 1 847.00 113.07
  Z"
/>
<path fill="#9a9b93" d="
  M 1523.04 117.00
  L 1531.47 126.64
  A 1.01 1.01 0.0 0 1 1531.46 127.97
  L 1441.25 228.79
  L 1432.33 218.38
  A 1.01 1.01 0.0 0 1 1432.35 217.06
  L 1521.12 117.80
  A 1.01 1.00 19.5 0 1 1521.82 117.47
  Q 1522.52 117.43 1523.04 117.00
  Z"
/>
<path fill="#ffffff" d="
  M 536.48 217.22
  A 103.49 91.09 0.0 0 1 432.99 308.31
  A 103.49 91.09 0.0 0 1 329.50 217.22
  A 103.49 91.09 0.0 0 1 432.99 126.13
  A 103.49 91.09 0.0 0 1 536.48 217.22
  Z
  M 410.76 139.97
  C 384.47 145.49 358.41 162.86 347.34 188.08
  Q 333.55 219.47 349.05 250.32
  A 0.99 0.98 -26.6 0 0 350.38 250.76
  L 391.70 230.22
  A 0.99 0.99 0.0 0 0 392.19 228.99
  C 383.37 204.56 403.57 184.31 426.50 181.48
  Q 448.59 178.75 465.23 193.04
  A 1.00 0.99 51.7 0 0 466.33 193.18
  L 507.92 172.55
  A 1.01 1.00 -33.2 0 0 508.25 171.01
  Q 495.76 156.05 478.81 147.93
  Q 446.53 132.46 410.76 139.97
  Z
  M 366.69 272.56
  C 409.30 311.08 487.98 303.52 516.33 250.84
  Q 533.49 218.94 517.12 184.12
  A 1.01 1.00 64.1 0 0 515.77 183.65
  L 474.49 204.10
  A 1.01 1.00 69.0 0 0 473.97 205.28
  Q 479.32 223.54 469.05 236.73
  C 452.70 257.73 420.05 258.45 400.75 241.37
  A 1.00 0.99 -37.0 0 0 399.64 241.22
  L 357.98 261.99
  A 1.01 1.00 56.0 0 0 357.68 263.55
  Q 361.54 267.90 366.69 272.56
  Z
  M 459.3280 216.8884
  A 26.32 23.20 -0.7 0 0 432.7266 194.0117
  A 26.32 23.20 -0.7 0 0 406.6920 217.5316
  A 26.32 23.20 -0.7 0 0 433.2934 240.4083
  A 26.32 23.20 -0.7 0 0 459.3280 216.8884
  Z"
/>
<path fill="#000000" d="
  M 347.34 188.08
  C 358.41 162.86 384.47 145.49 410.76 139.97
  Q 446.53 132.46 478.81 147.93
  Q 495.76 156.05 508.25 171.01
  A 1.01 1.00 -33.2 0 1 507.92 172.55
  L 466.33 193.18
  A 1.00 0.99 51.7 0 1 465.23 193.04
  Q 448.59 178.75 426.50 181.48
  C 403.57 184.31 383.37 204.56 392.19 228.99
  A 0.99 0.99 0.0 0 1 391.70 230.22
  L 350.38 250.76
  A 0.99 0.98 -26.6 0 1 349.05 250.32
  Q 333.55 219.47 347.34 188.08
  Z
  M 349.75 193.71
  Q 339.81 219.63 351.07 244.41
  A 1.01 1.01 0.0 0 0 352.43 244.90
  L 386.39 228.10
  A 1.00 1.00 0.0 0 0 386.93 227.01
  Q 383.51 209.72 392.54 196.25
  C 410.35 173.02 443.28 170.96 465.91 187.98
  A 1.02 1.01 50.0 0 0 466.96 188.08
  L 500.99 171.20
  A 1.01 1.00 55.2 0 0 501.27 169.61
  Q 489.90 157.69 474.75 150.77
  C 458.83 143.50 441.55 140.94 424.26 142.30
  C 393.74 144.69 360.30 163.63 349.75 193.71
  Z"
/>
<path fill="#ffffff" d="
  M 618.80 170.82
  L 651.56 138.07
  A 0.32 0.32 0.0 0 1 651.78 137.98
  L 749.07 138.00
  A 0.32 0.32 0.0 0 1 749.29 138.55
  L 669.21 213.14
  A 0.32 0.32 0.0 0 0 669.20 213.60
  L 751.28 295.95
  A 0.32 0.32 0.0 0 1 751.05 296.50
  L 656.34 296.50
  A 0.32 0.32 0.0 0 1 656.11 296.40
  L 618.79 257.93
  A 0.32 0.32 0.0 0 0 618.24 258.15
  L 618.25 296.18
  A 0.32 0.32 0.0 0 1 617.93 296.50
  L 548.57 296.50
  A 0.32 0.32 0.0 0 1 548.25 296.18
  L 548.25 138.30
  A 0.32 0.32 0.0 0 1 548.57 137.98
  L 617.93 138.01
  A 0.32 0.32 0.0 0 1 618.25 138.33
  L 618.25 170.60
  A 0.32 0.32 0.0 0 0 618.80 170.82
  Z
  M 606.75 192.50
  L 606.75 150.50
  A 1.00 1.00 0.0 0 0 605.75 149.50
  L 560.50 149.50
  A 1.00 1.00 0.0 0 0 559.50 150.50
  L 559.50 284.00
  A 1.00 1.00 0.0 0 0 560.50 285.00
  L 605.75 285.00
  A 1.00 1.00 0.0 0 0 606.75 284.00
  L 606.75 237.75
  A 1.00 1.00 0.0 0 1 607.75 236.75
  L 613.57 236.75
  A 1.02 0.99 67.2 0 1 614.29 237.06
  L 660.57 284.70
  A 1.03 1.01 67.2 0 0 661.29 285.00
  L 722.45 285.00
  Q 724.38 285.00 723.02 283.64
  L 653.25 213.87
  A 1.01 1.00 46.2 0 1 653.27 212.43
  L 719.35 150.88
  Q 720.83 149.50 718.80 149.50
  L 656.54 149.50
  A 1.03 0.98 -66.5 0 0 655.83 149.80
  L 612.42 193.20
  A 1.03 0.98 -66.5 0 1 611.71 193.50
  L 607.75 193.50
  A 1.00 1.00 0.0 0 1 606.75 192.50
  Z"
/>
<path fill="#ffffff" d="
  M 207.24 263.84
  L 207.28 296.16
  A 0.34 0.34 0.0 0 1 206.94 296.50
  L 137.59 296.50
  A 0.34 0.34 0.0 0 1 137.25 296.16
  L 137.25 138.34
  A 0.34 0.34 0.0 0 1 137.59 138.00
  L 270.00 138.00
  A 0.34 0.34 0.0 0 1 270.21 138.08
  L 319.63 179.09
  A 0.34 0.34 0.0 0 1 319.75 179.35
  L 319.75 222.12
  A 0.34 0.34 0.0 0 1 319.63 222.38
  L 270.11 263.42
  A 0.34 0.34 0.0 0 1 269.90 263.50
  L 207.58 263.50
  A 0.34 0.34 0.0 0 0 207.24 263.84
  Z
  M 195.43 285.00
  A 0.31 0.31 0.0 0 0 195.74 284.69
  L 195.73 252.31
  A 0.31 0.31 0.0 0 1 196.04 252.00
  L 265.94 252.00
  A 0.31 0.31 0.0 0 0 266.14 251.93
  L 308.14 217.12
  A 0.31 0.31 0.0 0 0 308.25 216.88
  L 308.25 184.66
  A 0.31 0.31 0.0 0 0 308.14 184.42
  L 266.26 149.57
  A 0.31 0.31 0.0 0 0 266.06 149.50
  L 149.06 149.50
  A 0.31 0.31 0.0 0 0 148.75 149.81
  L 148.75 284.69
  A 0.31 0.31 0.0 0 0 149.06 285.00
  L 195.43 285.00
  Z"
/>
<path fill="#c82e14" d="
  M 392.54 196.25
  Q 392.01 195.56 391.34 196.14
  Q 389.80 196.20 389.97 195.38
  A 0.51 0.51 0.0 0 0 389.56 194.77
  Q 383.18 193.69 376.74 194.50
  Q 375.41 194.67 374.40 193.88
  A 0.99 0.98 -25.2 0 0 373.78 193.66
  L 356.86 193.71
  A 0.64 0.62 15.0 0 0 356.32 194.01
  C 355.57 195.24 350.91 194.11 349.75 193.71
  C 360.30 163.63 393.74 144.69 424.26 142.30
  C 441.55 140.94 458.83 143.50 474.75 150.77
  Q 489.90 157.69 501.27 169.61
  A 1.01 1.00 55.2 0 1 500.99 171.20
  L 466.96 188.08
  A 1.02 1.01 50.0 0 1 465.91 187.98
  C 443.28 170.96 410.35 173.02 392.54 196.25
  Z"
/>
<path fill="#000000" d="
  M 607.75 193.50
  L 611.71 193.50
  A 1.03 0.98 -66.5 0 0 612.42 193.20
  L 655.83 149.80
  A 1.03 0.98 -66.5 0 1 656.54 149.50
  L 718.80 149.50
  Q 720.83 149.50 719.35 150.88
  L 653.27 212.43
  A 1.01 1.00 46.2 0 0 653.25 213.87
  L 723.02 283.64
  Q 724.38 285.00 722.45 285.00
  L 661.29 285.00
  A 1.03 1.01 67.2 0 1 660.57 284.70
  L 614.29 237.06
  A 1.02 0.99 67.2 0 0 613.57 236.75
  L 607.75 236.75
  A 1.00 1.00 0.0 0 0 606.75 237.75
  L 606.75 284.00
  A 1.00 1.00 0.0 0 1 605.75 285.00
  L 560.50 285.00
  A 1.00 1.00 0.0 0 1 559.50 284.00
  L 559.50 150.50
  A 1.00 1.00 0.0 0 1 560.50 149.50
  L 605.75 149.50
  A 1.00 1.00 0.0 0 1 606.75 150.50
  L 606.75 192.50
  A 1.00 1.00 0.0 0 0 607.75 193.50
  Z
  M 563.79 202.25
  L 563.79 232.50
  L 563.79 244.00
  L 563.76 279.75
  A 1.00 1.00 0.0 0 0 564.76 280.75
  L 601.56 280.75
  A 1.00 1.00 0.0 0 0 602.56 279.74
  L 602.48 268.10
  L 602.46 253.50
  L 602.57 233.24
  A 1.00 1.00 0.0 0 1 603.57 232.25
  L 615.20 232.25
  A 0.99 0.98 -21.8 0 1 615.91 232.55
  L 643.71 261.00
  L 655.25 273.04
  L 662.62 280.48
  A 1.03 0.98 66.5 0 0 663.33 280.78
  L 711.52 280.74
  Q 713.77 280.74 712.26 279.07
  Q 708.08 274.43 703.55 270.82
  L 691.79 258.75
  L 652.00 218.96
  L 647.05 213.73
  A 1.00 1.00 0.0 0 1 647.10 212.31
  L 708.55 155.11
  Q 709.96 153.79 708.03 153.72
  Q 704.77 153.61 701.48 153.62
  Q 680.26 153.70 658.88 153.47
  A 1.02 0.98 21.8 0 0 658.17 153.76
  L 614.32 197.25
  A 1.02 0.98 21.8 0 1 613.61 197.54
  L 603.49 197.48
  A 0.99 0.99 0.0 0 1 602.50 196.49
  L 602.50 154.44
  A 1.00 1.00 0.0 0 0 601.49 153.44
  L 564.68 153.79
  A 1.00 1.00 0.0 0 0 563.69 154.79
  L 563.79 202.25
  Z"
/>
<path fill="#000000" d="
  M 1148.58 199.97
  L 1210.16 199.67
  A 0.33 0.33 0.0 0 1 1210.49 200.00
  L 1210.52 233.95
  A 0.33 0.33 0.0 0 1 1210.19 234.28
  L 1148.58 234.24
  A 0.33 0.33 0.0 0 0 1148.25 234.57
  L 1148.25 245.43
  A 0.33 0.33 0.0 0 0 1148.58 245.76
  L 1225.54 245.74
  A 0.33 0.33 0.0 0 1 1225.81 245.88
  L 1253.08 284.48
  A 0.33 0.33 0.0 0 1 1252.81 285.00
  L 1137.70 285.00
  A 0.33 0.33 0.0 0 1 1137.49 284.92
  L 1095.37 250.00
  A 0.33 0.33 0.0 0 1 1095.25 249.74
  L 1095.25 184.84
  A 0.33 0.33 0.0 0 1 1095.37 184.59
  L 1137.42 149.58
  A 0.33 0.33 0.0 0 1 1137.63 149.50
  L 1252.79 149.49
  A 0.33 0.33 0.0 0 1 1253.06 150.01
  L 1225.92 188.47
  A 0.33 0.33 0.0 0 1 1225.65 188.61
  L 1148.58 188.59
  A 0.33 0.33 0.0 0 0 1148.25 188.92
  L 1148.25 199.64
  A 0.33 0.33 0.0 0 0 1148.58 199.97
  Z
  M 1099.54 223.25
  L 1099.50 247.09
  A 0.99 0.99 0.0 0 0 1099.79 247.79
  L 1101.46 249.50
  L 1119.96 264.75
  L 1139.19 280.52
  A 1.01 1.00 64.5 0 0 1139.83 280.75
  L 1243.28 280.75
  Q 1245.24 280.75 1244.10 279.17
  L 1231.81 262.13
  L 1223.85 250.44
  A 0.98 0.98 0.0 0 0 1223.03 250.00
  L 1145.26 250.00
  A 1.00 0.99 88.8 0 1 1144.27 249.04
  L 1144.20 247.67
  L 1144.18 231.25
  A 1.00 1.00 0.0 0 1 1145.18 230.25
  L 1205.45 230.25
  A 1.00 1.00 0.0 0 0 1206.45 229.25
  L 1206.47 217.71
  L 1206.49 205.25
  A 1.00 1.00 0.0 0 0 1205.49 204.25
  L 1145.22 204.25
  A 1.00 1.00 0.0 0 1 1144.22 203.25
  L 1144.23 185.50
  A 1.01 1.01 0.0 0 1 1145.24 184.50
  L 1222.97 184.50
  A 1.01 1.00 17.6 0 0 1223.79 184.08
  L 1244.36 154.98
  Q 1245.53 153.32 1243.50 153.40
  Q 1231.87 153.87 1220.24 153.72
  C 1193.33 153.37 1166.42 153.44 1139.59 153.61
  A 0.98 0.96 24.3 0 0 1138.96 153.84
  L 1099.88 186.42
  A 1.00 1.00 0.0 0 0 1099.52 187.19
  L 1099.54 223.25
  Z"
/>
<path fill="#000000" d="
  M 195.43 285.00
  L 149.06 285.00
  A 0.31 0.31 0.0 0 1 148.75 284.69
  L 148.75 149.81
  A 0.31 0.31 0.0 0 1 149.06 149.50
  L 266.06 149.50
  A 0.31 0.31 0.0 0 1 266.26 149.57
  L 308.14 184.42
  A 0.31 0.31 0.0 0 1 308.25 184.66
  L 308.25 216.88
  A 0.31 0.31 0.0 0 1 308.14 217.12
  L 266.14 251.93
  A 0.31 0.31 0.0 0 1 265.94 252.00
  L 196.04 252.00
  A 0.31 0.31 0.0 0 0 195.73 252.31
  L 195.74 284.69
  A 0.31 0.31 0.0 0 1 195.43 285.00
  Z
  M 152.98 220.58
  L 153.03 255.32
  L 153.04 267.50
  L 153.21 279.76
  A 1.01 1.00 89.4 0 0 154.21 280.75
  L 190.56 280.75
  A 1.01 1.00 90.0 0 0 191.56 279.74
  L 191.48 268.02
  L 191.46 256.25
  L 191.71 248.72
  A 1.01 1.00 -88.8 0 1 192.71 247.75
  L 264.25 247.75
  A 1.01 0.95 23.4 0 0 264.89 247.52
  L 298.50 219.54
  L 303.64 215.24
  A 1.00 1.00 0.0 0 0 304.00 214.47
  L 304.00 186.94
  A 1.00 1.00 0.0 0 0 303.64 186.17
  L 264.68 153.86
  A 1.01 1.00 64.5 0 0 264.04 153.63
  L 154.01 153.45
  A 1.00 1.00 0.0 0 0 153.01 154.45
  L 152.98 220.58
  Z"
/>
<path fill="#000000" d="
  M 789.00 244.75
  A 1.00 1.00 0.0 0 0 790.00 245.75
  L 866.06 245.74
  A 1.01 1.00 72.4 0 1 866.88 246.17
  L 893.18 283.42
  Q 894.29 284.99 892.36 284.99
  L 778.83 285.02
  A 1.01 1.00 64.5 0 1 778.19 284.79
  L 736.37 250.13
  A 1.00 1.00 0.0 0 1 736.01 249.36
  L 736.01 185.19
  A 1.00 1.00 0.0 0 1 736.37 184.42
  L 778.13 149.73
  A 1.01 1.00 -64.5 0 1 778.77 149.50
  L 892.32 149.50
  Q 894.25 149.50 893.14 151.08
  L 866.83 188.37
  A 1.00 0.98 -71.5 0 1 865.98 188.80
  C 850.92 188.24 833.37 188.77 821.00 188.73
  Q 805.51 188.67 790.01 188.42
  A 1.00 1.00 0.0 0 0 789.00 189.42
  L 789.00 198.88
  A 1.00 0.99 89.7 0 0 790.00 199.88
  L 850.48 199.69
  A 1.00 1.00 0.0 0 1 851.48 200.69
  L 851.54 233.27
  A 1.01 1.00 -0.0 0 1 850.53 234.27
  L 790.00 234.24
  A 1.00 1.00 0.0 0 0 789.00 235.24
  L 789.00 244.75
  Z
  M 740.54 225.75
  L 740.50 247.53
  A 1.00 1.00 0.0 0 0 740.86 248.30
  L 746.25 252.79
  L 769.72 271.60
  Q 774.64 276.80 779.93 280.57
  A 0.99 0.98 62.8 0 0 780.51 280.76
  L 884.09 280.76
  Q 885.86 280.76 884.95 279.25
  Q 882.12 274.51 878.76 270.85
  Q 871.85 260.01 864.49 250.45
  A 1.02 1.00 -18.4 0 0 863.69 250.06
  L 785.03 250.08
  Q 784.45 240.53 784.87 231.19
  A 1.00 0.99 1.2 0 1 785.87 230.24
  L 846.20 230.26
  A 1.00 1.00 0.0 0 0 847.20 229.26
  L 847.21 222.00
  L 847.11 205.24
  A 1.00 1.00 0.0 0 0 846.11 204.24
  L 785.75 204.26
  A 1.00 1.00 0.0 0 1 784.75 203.26
  L 784.75 185.50
  A 1.00 1.00 0.0 0 1 785.75 184.50
  L 863.82 184.50
  A 1.00 0.99 -72.0 0 0 864.63 184.08
  L 885.11 155.12
  Q 886.11 153.70 884.38 153.54
  Q 882.62 153.38 880.85 153.50
  Q 876.26 153.80 875.63 153.79
  Q 828.10 153.35 780.55 153.53
  A 0.95 0.95 0.0 0 0 779.92 153.77
  L 740.90 186.28
  A 1.00 1.00 0.0 0 0 740.54 187.05
  L 740.54 225.75
  Z"
/>
<path fill="#000000" d="
  M 1077.50 184.74
  L 1077.50 249.82
  A 0.34 0.34 0.0 0 1 1077.38 250.08
  L 1035.35 284.92
  A 0.34 0.34 0.0 0 1 1035.14 285.00
  L 913.33 285.00
  A 0.34 0.34 0.0 0 1 912.99 284.66
  L 913.00 149.84
  A 0.34 0.34 0.0 0 1 913.34 149.50
  L 1035.21 149.50
  A 0.34 0.34 0.0 0 1 1035.42 149.58
  L 1077.38 184.48
  A 0.34 0.34 0.0 0 1 1077.50 184.74
  Z
  M 917.54 221.75
  L 917.50 246.69
  L 917.54 263.00
  L 917.55 279.75
  A 1.00 1.00 0.0 0 0 918.55 280.75
  L 1033.54 280.75
  A 1.01 1.00 -64.5 0 0 1034.18 280.52
  L 1053.25 264.54
  L 1072.79 248.29
  A 1.00 0.98 -19.4 0 0 1073.15 247.55
  L 1073.24 244.38
  L 1073.24 187.06
  A 1.00 1.00 0.0 0 0 1072.88 186.29
  L 1033.65 153.69
  A 0.95 0.95 0.0 0 0 1032.98 153.46
  C 1000.06 154.70 972.54 152.74 928.36 153.76
  Q 923.48 153.87 918.57 153.62
  A 1.00 1.00 0.0 0 0 917.52 154.62
  L 917.54 221.75
  Z"
/>
<path fill="#000000" d="
  M 1355.51 253.40
  L 1327.57 284.67
  A 1.02 1.01 20.9 0 1 1326.82 285.00
  L 1266.39 285.00
  Q 1264.16 285.00 1265.65 283.33
  L 1324.10 217.87
  A 1.00 0.99 -45.2 0 0 1324.10 216.54
  L 1265.66 151.17
  Q 1264.17 149.50 1266.41 149.50
  L 1326.89 149.50
  A 1.01 1.00 69.1 0 1 1327.64 149.84
  L 1355.53 181.07
  A 1.00 1.00 0.0 0 0 1357.02 181.07
  L 1384.99 149.83
  A 1.02 1.01 20.9 0 1 1385.74 149.50
  L 1446.20 149.50
  Q 1448.44 149.50 1446.94 151.17
  L 1388.39 216.60
  A 1.01 0.99 -44.6 0 0 1388.37 217.92
  L 1444.63 283.35
  Q 1446.05 285.00 1443.87 285.00
  L 1385.81 285.00
  A 1.02 1.01 -20.9 0 1 1385.06 284.67
  L 1357.01 253.39
  A 1.01 1.00 -45.2 0 0 1355.51 253.40
  Z
  M 1328.72 219.12
  L 1304.75 246.21
  L 1287.19 265.99
  Q 1280.85 272.18 1275.01 279.44
  Q 1273.96 280.74 1275.63 280.74
  L 1324.82 280.76
  A 1.02 1.01 20.9 0 0 1325.57 280.43
  L 1337.75 266.79
  L 1354.50 248.04
  Q 1356.21 244.92 1358.00 248.04
  L 1383.19 275.78
  C 1384.85 278.62 1386.73 281.01 1390.32 280.96
  Q 1412.33 280.62 1434.35 280.74
  Q 1436.53 280.76 1435.11 279.09
  L 1430.75 273.99
  Q 1418.58 259.10 1406.35 245.77
  L 1382.13 217.36
  L 1437.58 155.24
  Q 1439.07 153.57 1436.83 153.57
  L 1387.80 153.59
  A 1.01 0.99 -68.5 0 0 1387.06 153.92
  L 1357.07 187.49
  A 1.00 1.00 0.0 0 1 1355.58 187.49
  L 1325.44 153.81
  A 1.02 1.01 -20.9 0 0 1324.69 153.48
  L 1275.82 153.55
  Q 1273.60 153.55 1275.08 155.21
  Q 1302.16 185.65 1329.29 215.87
  C 1330.54 217.26 1330.36 218.26 1328.72 219.12
  Z"
/>
<path fill="#d7d9d6" d="
  M 298.50 219.54
  L 296.44 217.74
  A 0.98 0.97 64.3 0 0 295.74 217.49
  C 289.39 217.76 283.06 217.03 276.74 217.98
  Q 272.87 218.56 268.96 218.31
  A 0.99 0.98 -72.6 0 0 268.05 218.79
  Q 267.01 220.50 265.21 219.25
  L 265.24 182.81
  A 1.01 1.01 0.0 0 0 264.23 181.80
  L 192.56 182.07
  A 1.01 1.00 90.0 0 0 191.56 183.08
  L 191.68 219.48
  Q 186.56 218.50 181.32 218.71
  Q 176.68 218.89 173.16 218.68
  Q 162.94 218.07 152.98 220.58
  L 153.01 154.45
  A 1.00 1.00 0.0 0 1 154.01 153.45
  L 264.04 153.63
  A 1.01 1.00 64.5 0 1 264.68 153.86
  L 303.64 186.17
  A 1.00 1.00 0.0 0 1 304.00 186.94
  L 304.00 214.47
  A 1.00 1.00 0.0 0 1 303.64 215.24
  L 298.50 219.54
  Z"
/>
<path fill="#d7d9d6" d="
  M 652.00 218.96
  Q 646.50 218.59 641.00 218.70
  C 624.31 219.06 607.72 217.35 591.06 218.67
  C 590.73 218.69 589.79 218.22 589.29 218.23
  Q 578.76 218.34 568.22 218.50
  Q 567.63 218.51 566.81 218.74
  Q 566.44 218.84 566.03 218.91
  A 1.01 1.00 83.0 0 1 564.86 217.99
  L 563.79 202.25
  L 563.69 154.79
  A 1.00 1.00 0.0 0 1 564.68 153.79
  L 601.49 153.44
  A 1.00 1.00 0.0 0 1 602.50 154.44
  L 602.50 196.49
  A 0.99 0.99 0.0 0 0 603.49 197.48
  L 613.61 197.54
  A 1.02 0.98 21.8 0 0 614.32 197.25
  L 658.17 153.76
  A 1.02 0.98 21.8 0 1 658.88 153.47
  Q 680.26 153.70 701.48 153.62
  Q 704.77 153.61 708.03 153.72
  Q 709.96 153.79 708.55 155.11
  L 647.10 212.31
  A 1.00 1.00 0.0 0 0 647.05 213.73
  L 652.00 218.96
  Z"
/>
<path fill="#d7d9d6" d="
  M 847.21 222.00
  Q 843.72 221.30 841.32 223.25
  A 1.03 1.02 24.4 0 1 840.70 223.48
  Q 805.27 223.90 769.84 223.61
  C 761.85 223.54 751.77 223.91 742.73 223.71
  A 1.01 1.00 -69.3 0 0 741.94 224.07
  L 740.54 225.75
  L 740.54 187.05
  A 1.00 1.00 0.0 0 1 740.90 186.28
  L 779.92 153.77
  A 0.95 0.95 0.0 0 1 780.55 153.53
  Q 828.10 153.35 875.63 153.79
  Q 876.26 153.80 880.85 153.50
  Q 882.62 153.38 884.38 153.54
  Q 886.11 153.70 885.11 155.12
  L 864.63 184.08
  A 1.00 0.99 -72.0 0 1 863.82 184.50
  L 785.75 184.50
  A 1.00 1.00 0.0 0 0 784.75 185.50
  L 784.75 203.26
  A 1.00 1.00 0.0 0 0 785.75 204.26
  L 846.11 204.24
  A 1.00 1.00 0.0 0 1 847.11 205.24
  L 847.21 222.00
  Z"
/>
<path fill="#d7d9d6" d="
  M 1073.24 244.38
  Q 1053.93 242.07 1034.50 244.13
  L 1034.47 185.50
  A 1.00 1.00 0.0 0 0 1033.47 184.50
  L 957.05 184.50
  A 1.00 1.00 0.0 0 0 956.05 185.50
  L 955.96 214.75
  Q 955.42 216.11 955.40 217.63
  A 1.00 1.00 0.0 0 1 954.01 218.53
  Q 952.47 217.87 950.75 217.76
  Q 946.64 217.48 942.51 217.47
  C 938.31 217.46 933.37 218.73 928.52 218.50
  A 0.40 0.36 -67.7 0 0 928.23 218.64
  C 928.00 218.95 928.07 218.88 927.78 218.80
  Q 923.89 217.70 919.78 217.87
  A 1.01 1.01 0.0 0 0 918.90 218.48
  L 917.54 221.75
  L 917.52 154.62
  A 1.00 1.00 0.0 0 1 918.57 153.62
  Q 923.48 153.87 928.36 153.76
  C 972.54 152.74 1000.06 154.70 1032.98 153.46
  A 0.95 0.95 0.0 0 1 1033.65 153.69
  L 1072.88 186.29
  A 1.00 1.00 0.0 0 1 1073.24 187.06
  L 1073.24 244.38
  Z"
/>
<path fill="#d7d9d6" d="
  M 1206.47 217.71
  Q 1163.94 218.84 1121.41 218.26
  C 1116.48 218.20 1108.98 219.10 1102.58 218.20
  A 0.99 0.97 22.8 0 0 1101.65 218.57
  Q 1100.93 219.49 1101.01 220.70
  A 1.00 0.99 60.6 0 1 1100.84 221.32
  L 1099.54 223.25
  L 1099.52 187.19
  A 1.00 1.00 0.0 0 1 1099.88 186.42
  L 1138.96 153.84
  A 0.98 0.96 24.3 0 1 1139.59 153.61
  C 1166.42 153.44 1193.33 153.37 1220.24 153.72
  Q 1231.87 153.87 1243.50 153.40
  Q 1245.53 153.32 1244.36 154.98
  L 1223.79 184.08
  A 1.01 1.00 17.6 0 1 1222.97 184.50
  L 1145.24 184.50
  A 1.01 1.01 0.0 0 0 1144.23 185.50
  L 1144.22 203.25
  A 1.00 1.00 0.0 0 0 1145.22 204.25
  L 1205.49 204.25
  A 1.00 1.00 0.0 0 1 1206.49 205.25
  L 1206.47 217.71
  Z"
/>
<path fill="#d7d9d6" d="
  M 1382.13 217.36
  Q 1376.93 219.35 1371.48 218.85
  Q 1364.53 218.21 1364.49 218.21
  Q 1346.61 217.90 1328.72 219.12
  C 1330.36 218.26 1330.54 217.26 1329.29 215.87
  Q 1302.16 185.65 1275.08 155.21
  Q 1273.60 153.55 1275.82 153.55
  L 1324.69 153.48
  A 1.02 1.01 -20.9 0 1 1325.44 153.81
  L 1355.58 187.49
  A 1.00 1.00 0.0 0 0 1357.07 187.49
  L 1387.06 153.92
  A 1.01 0.99 -68.5 0 1 1387.80 153.59
  L 1436.83 153.57
  Q 1439.07 153.57 1437.58 155.24
  L 1382.13 217.36
  Z"
/>
<path fill="#000000" d="
  M 900.06 161.10
  Q 901.51 159.05 901.51 161.56
  L 901.50 272.91
  Q 901.49 275.43 900.04 273.37
  L 872.76 234.67
  A 1.01 1.00 -17.6 0 0 871.94 234.25
  L 863.75 234.25
  A 1.00 1.00 0.0 0 1 862.75 233.25
  L 862.75 200.95
  A 1.00 1.00 0.0 0 1 863.79 199.95
  L 871.75 200.29
  A 0.98 0.97 18.7 0 0 872.61 199.87
  L 900.06 161.10
  Z"
/>
<path fill="#000000" d="
  M 1231.46 234.26
  L 1222.52 234.30
  A 0.30 0.30 0.0 0 1 1222.22 234.00
  L 1222.27 200.31
  A 0.30 0.30 0.0 0 1 1222.57 200.01
  L 1231.44 200.12
  A 0.30 0.30 0.0 0 0 1231.69 199.99
  L 1258.99 161.36
  A 0.30 0.30 0.0 0 1 1259.46 161.33
  L 1309.24 217.05
  A 0.30 0.30 0.0 0 1 1309.24 217.45
  L 1259.47 273.09
  A 0.30 0.30 0.0 0 1 1259.00 273.06
  L 1231.71 234.39
  A 0.30 0.30 0.0 0 0 1231.46 234.26
  Z
  M 1261.08 188.83
  A 0.33 0.33 0.0 0 0 1260.56 188.86
  L 1240.64 217.00
  A 0.33 0.33 0.0 0 0 1240.64 217.38
  L 1260.58 245.61
  A 0.33 0.33 0.0 0 0 1261.10 245.64
  L 1286.29 217.45
  A 0.33 0.33 0.0 0 0 1286.29 217.01
  L 1261.08 188.83
  Z"
/>
<path fill="#000000" d="
  M 265.21 219.25
  L 191.68 219.48
  L 191.56 183.08
  A 1.01 1.00 90.0 0 1 192.56 182.07
  L 264.23 181.80
  A 1.01 1.01 0.0 0 1 265.24 182.81
  L 265.21 219.25
  Z
  M 261.19 186.56
  A 0.31 0.31 0.0 0 0 260.88 186.25
  L 196.06 186.25
  A 0.31 0.31 0.0 0 0 195.75 186.56
  L 195.75 214.94
  A 0.31 0.31 0.0 0 0 196.06 215.25
  L 260.88 215.25
  A 0.31 0.31 0.0 0 0 261.19 214.94
  L 261.19 186.56
  Z"
/>
<path fill="#000000" d="
  M 366.69 272.56
  Q 361.54 267.90 357.68 263.55
  A 1.01 1.00 56.0 0 1 357.98 261.99
  L 399.64 241.22
  A 1.00 0.99 -37.0 0 1 400.75 241.37
  C 420.05 258.45 452.70 257.73 469.05 236.73
  Q 479.32 223.54 473.97 205.28
  A 1.01 1.00 69.0 0 1 474.49 204.10
  L 515.77 183.65
  A 1.01 1.00 64.1 0 1 517.12 184.12
  Q 533.49 218.94 516.33 250.84
  C 487.98 303.52 409.30 311.08 366.69 272.56
  Z
  M 480.29 220.00
  Q 476.80 241.51 457.71 251.75
  C 439.32 260.95 416.44 259.57 400.25 246.41
  A 1.00 1.00 0.0 0 0 399.17 246.29
  L 364.98 263.23
  A 1.01 1.00 -34.7 0 0 364.69 264.82
  Q 371.88 272.42 381.00 278.04
  C 413.13 297.82 453.93 297.35 485.75 277.31
  Q 500.44 268.10 509.75 253.54
  Q 519.94 238.35 520.74 219.15
  Q 521.33 204.23 514.99 189.96
  A 0.99 0.99 0.0 0 0 513.64 189.47
  L 479.49 206.40
  A 1.00 0.99 69.5 0 0 478.97 207.55
  Q 480.57 213.75 480.29 220.00
  Z"
/>
<path fill="#000000" d="
  M 1034.50 244.13
  L 1034.39 249.02
  A 1.01 1.00 -89.1 0 1 1033.39 250.00
  L 957.05 250.00
  A 1.00 1.00 0.0 0 1 956.05 249.01
  L 955.96 241.50
  L 955.96 214.75
  L 956.05 185.50
  A 1.00 1.00 0.0 0 1 957.05 184.50
  L 1033.47 184.50
  A 1.00 1.00 0.0 0 1 1034.47 185.50
  L 1034.50 244.13
  Z
  M 1030.25 188.93
  A 0.28 0.28 0.0 0 0 1029.97 188.65
  L 960.53 188.65
  A 0.28 0.28 0.0 0 0 960.25 188.93
  L 960.25 245.47
  A 0.28 0.28 0.0 0 0 960.53 245.75
  L 1029.97 245.75
  A 0.28 0.28 0.0 0 0 1030.25 245.47
  L 1030.25 188.93
  Z"
/>
<path fill="#ffffff" d="
  M 261.19 214.94
  A 0.31 0.31 0.0 0 1 260.88 215.25
  L 196.06 215.25
  A 0.31 0.31 0.0 0 1 195.75 214.94
  L 195.75 186.56
  A 0.31 0.31 0.0 0 1 196.06 186.25
  L 260.88 186.25
  A 0.31 0.31 0.0 0 1 261.19 186.56
  L 261.19 214.94
  Z
  M 248.49 197.28
  A 0.28 0.28 0.0 0 0 248.21 197.00
  L 208.79 197.00
  A 0.28 0.28 0.0 0 0 208.51 197.28
  L 208.51 203.98
  A 0.28 0.28 0.0 0 0 208.79 204.26
  L 248.21 204.26
  A 0.28 0.28 0.0 0 0 248.49 203.98
  L 248.49 197.28
  Z"
/>
<path fill="#ffffff" d="
  M 1030.25 245.47
  A 0.28 0.28 0.0 0 1 1029.97 245.75
  L 960.53 245.75
  A 0.28 0.28 0.0 0 1 960.25 245.47
  L 960.25 188.93
  A 0.28 0.28 0.0 0 1 960.53 188.65
  L 1029.97 188.65
  A 0.28 0.28 0.0 0 1 1030.25 188.93
  L 1030.25 245.47
  Z
  M 1018.7793 200.4811
  A 0.27 0.27 0.0 0 0 1018.5097 200.2106
  L 972.0298 200.1295
  A 0.27 0.27 0.0 0 0 971.7593 200.3990
  L 971.7007 233.9589
  A 0.27 0.27 0.0 0 0 971.9703 234.2294
  L 1018.4502 234.3105
  A 0.27 0.27 0.0 0 0 1018.7207 234.0410
  L 1018.7793 200.4811
  Z"
/>
<path fill="#babcb2" d="
  M 1261.08 188.83
  L 1286.29 217.01
  A 0.33 0.33 0.0 0 1 1286.29 217.45
  L 1261.10 245.64
  A 0.33 0.33 0.0 0 1 1260.58 245.61
  L 1240.64 217.38
  A 0.33 0.33 0.0 0 1 1240.64 217.00
  L 1260.56 188.86
  A 0.33 0.33 0.0 0 1 1261.08 188.83
  Z
  M 1254.91 229.73
  L 1260.47 237.96
  A 0.99 0.99 0.0 0 0 1262.04 238.06
  L 1279.77 218.08
  A 1.02 1.01 -42.5 0 0 1279.83 216.82
  Q 1275.99 211.61 1271.29 207.25
  L 1261.99 196.79
  A 1.00 0.99 41.6 0 0 1260.43 196.88
  L 1246.39 216.71
  A 0.99 0.99 0.0 0 0 1246.39 217.87
  L 1254.91 229.73
  Z"
/>
<path fill="#d7d9d6" d="
  M 520.74 219.15
  Q 502.01 218.26 483.30 218.77
  A 1.03 1.02 24.4 0 0 482.68 219.00
  Q 481.57 219.93 480.29 220.00
  Q 480.57 213.75 478.97 207.55
  A 1.00 0.99 69.5 0 1 479.49 206.40
  L 513.64 189.47
  A 0.99 0.99 0.0 0 1 514.99 189.96
  Q 521.33 204.23 520.74 219.15
  Z"
/>
<path fill="#9f250f" d="
  M 392.54 196.25
  Q 383.51 209.72 386.93 227.01
  A 1.00 1.00 0.0 0 1 386.39 228.10
  L 352.43 244.90
  A 1.01 1.01 0.0 0 1 351.07 244.41
  Q 339.81 219.63 349.75 193.71
  C 350.91 194.11 355.57 195.24 356.32 194.01
  A 0.64 0.62 15.0 0 1 356.86 193.71
  L 373.78 193.66
  A 0.99 0.98 -25.2 0 1 374.40 193.88
  Q 375.41 194.67 376.74 194.50
  Q 383.18 193.69 389.56 194.77
  A 0.51 0.51 0.0 0 1 389.97 195.38
  Q 389.80 196.20 391.34 196.14
  Q 392.01 195.56 392.54 196.25
  Z"
/>
<path fill="#000000" d="
  M 459.3280 216.8884
  A 26.32 23.20 -0.7 0 1 433.2934 240.4083
  A 26.32 23.20 -0.7 0 1 406.6920 217.5316
  A 26.32 23.20 -0.7 0 1 432.7266 194.0117
  A 26.32 23.20 -0.7 0 1 459.3280 216.8884
  Z
  M 455.0273 216.8738
  A 22.04 18.91 -0.9 0 0 432.6930 198.3123
  A 22.04 18.91 -0.9 0 0 410.9527 217.5662
  A 22.04 18.91 -0.9 0 0 433.2870 236.1277
  A 22.04 18.91 -0.9 0 0 455.0273 216.8738
  Z"
/>
<path fill="#9a9b93" d="
  M 1271.29 207.25
  L 1254.91 229.73
  L 1246.39 217.87
  A 0.99 0.99 0.0 0 1 1246.39 216.71
  L 1260.43 196.88
  A 1.00 0.99 41.6 0 1 1261.99 196.79
  L 1271.29 207.25
  Z"
/>
<rect fill="#000000" x="208.51" y="197.00" width="39.98" height="7.26" rx="0.28"/>
<ellipse fill="#d7d9d6" cx="0.00" cy="0.00" transform="translate(432.99,217.22) rotate(-0.9)" rx="22.04" ry="18.91"/>
<rect fill="#000000" x="-23.51" y="-17.05" transform="translate(995.24,217.22) rotate(0.1)" width="47.02" height="34.10" rx="0.27"/>
<path fill="#babcb2" d="
  M 563.79 202.25
  L 564.86 217.99
  A 1.01 1.00 83.0 0 0 566.03 218.91
  Q 566.44 218.84 566.81 218.74
  Q 567.63 218.51 568.22 218.50
  Q 578.76 218.34 589.29 218.23
  C 589.79 218.22 590.73 218.69 591.06 218.67
  C 607.72 217.35 624.31 219.06 641.00 218.70
  Q 646.50 218.59 652.00 218.96
  L 691.79 258.75
  Q 689.78 259.97 688.52 258.21
  A 1.00 0.99 69.9 0 0 687.62 257.79
  C 685.61 257.97 683.69 258.55 681.74 258.53
  Q 663.80 258.35 645.85 258.70
  C 644.45 258.73 643.42 259.55 643.71 261.00
  L 615.91 232.55
  A 0.99 0.98 -21.8 0 0 615.20 232.25
  L 603.57 232.25
  A 1.00 1.00 0.0 0 0 602.57 233.24
  L 602.46 253.50
  L 565.52 253.39
  A 0.51 0.51 0.0 0 1 565.01 252.88
  Q 565.01 252.52 564.67 252.32
  A 1.02 1.02 0.0 0 1 564.19 251.42
  Q 564.56 241.94 563.79 232.50
  L 563.79 202.25
  Z"
/>
<path fill="#babcb2" d="
  M 955.96 214.75
  L 955.96 241.50
  L 955.72 244.73
  A 1.04 0.98 70.0 0 1 955.46 245.33
  Q 954.41 246.47 953.01 245.98
  A 1.00 1.00 0.0 0 0 952.44 245.95
  C 948.53 246.92 944.62 246.00 941.59 245.93
  Q 929.54 245.63 917.50 246.69
  L 917.54 221.75
  L 918.90 218.48
  A 1.01 1.01 0.0 0 1 919.78 217.87
  Q 923.89 217.70 927.78 218.80
  C 928.07 218.88 928.00 218.95 928.23 218.64
  A 0.40 0.36 -67.7 0 1 928.52 218.50
  C 933.37 218.73 938.31 217.46 942.51 217.47
  Q 946.64 217.48 950.75 217.76
  Q 952.47 217.87 954.01 218.53
  A 1.00 1.00 0.0 0 0 955.40 217.63
  Q 955.42 216.11 955.96 214.75
  Z"
/>
<path fill="#babcb2" d="
  M 298.50 219.54
  L 264.89 247.52
  A 1.01 0.95 23.4 0 1 264.25 247.75
  L 192.71 247.75
  A 1.01 1.00 -88.8 0 0 191.71 248.72
  L 191.46 256.25
  C 191.08 253.62 187.18 255.33 185.25 255.18
  C 176.41 254.49 167.25 255.92 158.53 254.38
  Q 155.77 253.90 153.03 255.32
  L 152.98 220.58
  Q 162.94 218.07 173.16 218.68
  Q 176.68 218.89 181.32 218.71
  Q 186.56 218.50 191.68 219.48
  L 265.21 219.25
  Q 267.01 220.50 268.05 218.79
  A 0.99 0.98 -72.6 0 1 268.96 218.31
  Q 272.87 218.56 276.74 217.98
  C 283.06 217.03 289.39 217.76 295.74 217.49
  A 0.98 0.97 64.3 0 1 296.44 217.74
  L 298.50 219.54
  Z"
/>
<path fill="#babcb2" d="
  M 1206.47 217.71
  L 1206.45 229.25
  A 1.00 1.00 0.0 0 1 1205.45 230.25
  L 1145.18 230.25
  A 1.00 1.00 0.0 0 0 1144.18 231.25
  L 1144.20 247.67
  Q 1137.20 246.89 1130.18 246.96
  C 1121.22 247.05 1113.66 246.79 1105.44 247.44
  Q 1103.00 247.63 1101.46 249.50
  L 1099.79 247.79
  A 0.99 0.99 0.0 0 1 1099.50 247.09
  L 1099.54 223.25
  L 1100.84 221.32
  A 1.00 0.99 60.6 0 0 1101.01 220.70
  Q 1100.93 219.49 1101.65 218.57
  A 0.99 0.97 22.8 0 1 1102.58 218.20
  C 1108.98 219.10 1116.48 218.20 1121.41 218.26
  Q 1163.94 218.84 1206.47 217.71
  Z"
/>
<path fill="#babcb2" d="
  M 1382.13 217.36
  L 1406.35 245.77
  Q 1383.93 247.46 1361.53 246.80
  C 1360.41 246.77 1358.97 247.54 1358.00 248.04
  Q 1356.21 244.92 1354.50 248.04
  C 1351.80 245.06 1347.36 246.81 1343.90 246.77
  Q 1327.33 246.58 1310.74 246.46
  Q 1308.12 246.45 1306.94 246.68
  Q 1305.74 246.92 1304.75 246.21
  L 1328.72 219.12
  Q 1346.61 217.90 1364.49 218.21
  Q 1364.53 218.21 1371.48 218.85
  Q 1376.93 219.35 1382.13 217.36
  Z"
/>
<path fill="#babcb2" d="
  M 520.74 219.15
  Q 519.94 238.35 509.75 253.54
  Q 505.80 252.72 501.82 252.86
  C 489.01 253.30 476.08 252.99 463.26 253.01
  C 461.92 253.01 456.16 254.82 457.71 251.75
  Q 476.80 241.51 480.29 220.00
  Q 481.57 219.93 482.68 219.00
  A 1.03 1.02 24.4 0 1 483.30 218.77
  Q 502.01 218.26 520.74 219.15
  Z"
/>
<path fill="#babcb2" d="
  M 847.21 222.00
  L 847.20 229.26
  A 1.00 1.00 0.0 0 1 846.20 230.26
  L 785.87 230.24
  A 1.00 0.99 1.2 0 0 784.87 231.19
  Q 784.45 240.53 785.03 250.08
  Q 782.11 252.07 778.69 251.73
  C 769.01 250.78 758.81 251.46 749.04 251.68
  A 1.00 0.99 14.5 0 0 748.20 252.17
  Q 747.61 253.18 746.25 252.79
  L 740.86 248.30
  A 1.00 1.00 0.0 0 1 740.50 247.53
  L 740.54 225.75
  L 741.94 224.07
  A 1.01 1.00 -69.3 0 1 742.73 223.71
  C 751.77 223.91 761.85 223.54 769.84 223.61
  Q 805.27 223.90 840.70 223.48
  A 1.03 1.02 24.4 0 0 841.32 223.25
  Q 843.72 221.30 847.21 222.00
  Z"
/>
<path fill="#9a9b93" d="
  M 563.79 232.50
  Q 564.56 241.94 564.19 251.42
  A 1.02 1.02 0.0 0 0 564.67 252.32
  Q 565.01 252.52 565.01 252.88
  A 0.51 0.51 0.0 0 0 565.52 253.39
  L 602.46 253.50
  L 602.48 268.10
  Q 585.28 267.04 566.11 267.77
  A 0.99 0.99 0.0 0 1 565.12 267.06
  C 562.99 259.96 564.16 251.42 563.79 244.00
  L 563.79 232.50
  Z"
/>
<path fill="#9a9b93" d="
  M 955.96 241.50
  L 956.05 249.01
  A 1.00 1.00 0.0 0 0 957.05 250.00
  L 1033.39 250.00
  A 1.01 1.00 -89.1 0 0 1034.39 249.02
  L 1034.50 244.13
  Q 1053.93 242.07 1073.24 244.38
  L 1073.15 247.55
  A 1.00 0.98 -19.4 0 1 1072.79 248.29
  L 1053.25 264.54
  Q 1050.53 262.70 1046.00 262.69
  Q 1003.66 262.55 961.32 262.86
  C 948.40 262.95 932.14 262.63 917.54 263.00
  L 917.50 246.69
  Q 929.54 245.63 941.59 245.93
  C 944.62 246.00 948.53 246.92 952.44 245.95
  A 1.00 1.00 0.0 0 1 953.01 245.98
  Q 954.41 246.47 955.46 245.33
  A 1.04 0.98 70.0 0 0 955.72 244.73
  L 955.96 241.50
  Z"
/>
<path fill="#6f7165" d="
  M 563.79 244.00
  C 564.16 251.42 562.99 259.96 565.12 267.06
  A 0.99 0.99 0.0 0 0 566.11 267.77
  Q 585.28 267.04 602.48 268.10
  L 602.56 279.74
  A 1.00 1.00 0.0 0 1 601.56 280.75
  L 564.76 280.75
  A 1.00 1.00 0.0 0 1 563.76 279.75
  L 563.79 244.00
  Z"
/>
<path fill="#9a9b93" d="
  M 1406.35 245.77
  Q 1418.58 259.10 1430.75 273.99
  Q 1406.97 274.35 1383.19 275.78
  L 1358.00 248.04
  C 1358.97 247.54 1360.41 246.77 1361.53 246.80
  Q 1383.93 247.46 1406.35 245.77
  Z"
/>
<path fill="#9a9b93" d="
  M 1354.50 248.04
  L 1337.75 266.79
  C 1331.21 265.09 1324.67 266.07 1319.20 266.06
  Q 1303.21 266.06 1287.19 265.99
  L 1304.75 246.21
  Q 1305.74 246.92 1306.94 246.68
  Q 1308.12 246.45 1310.74 246.46
  Q 1327.33 246.58 1343.90 246.77
  C 1347.36 246.81 1351.80 245.06 1354.50 248.04
  Z"
/>
<path fill="#9a9b93" d="
  M 457.71 251.75
  C 456.16 254.82 461.92 253.01 463.26 253.01
  C 476.08 252.99 489.01 253.30 501.82 252.86
  Q 505.80 252.72 509.75 253.54
  Q 500.44 268.10 485.75 277.31
  Q 480.84 275.58 475.76 275.98
  Q 469.06 276.50 468.70 276.50
  Q 428.73 276.49 388.75 276.46
  Q 384.68 276.46 381.00 278.04
  Q 371.88 272.42 364.69 264.82
  A 1.01 1.00 -34.7 0 1 364.98 263.23
  L 399.17 246.29
  A 1.00 1.00 0.0 0 1 400.25 246.41
  C 416.44 259.57 439.32 260.95 457.71 251.75
  Z"
/>
<path fill="#9a9b93" d="
  M 1144.20 247.67
  L 1144.27 249.04
  A 1.00 0.99 88.8 0 0 1145.26 250.00
  L 1223.03 250.00
  A 0.98 0.98 0.0 0 1 1223.85 250.44
  L 1231.81 262.13
  Q 1211.34 263.10 1190.84 262.87
  C 1189.75 262.86 1188.30 263.20 1186.75 263.20
  Q 1156.14 263.31 1144.50 263.23
  C 1134.15 263.15 1123.26 262.08 1119.96 264.75
  L 1101.46 249.50
  Q 1103.00 247.63 1105.44 247.44
  C 1113.66 246.79 1121.22 247.05 1130.18 246.96
  Q 1137.20 246.89 1144.20 247.67
  Z"
/>
<path fill="#9a9b93" d="
  M 785.03 250.08
  L 863.69 250.06
  A 1.02 1.00 -18.4 0 1 864.49 250.45
  Q 871.85 260.01 878.76 270.85
  L 769.72 271.60
  L 746.25 252.79
  Q 747.61 253.18 748.20 252.17
  A 1.00 0.99 14.5 0 1 749.04 251.68
  C 758.81 251.46 769.01 250.78 778.69 251.73
  Q 782.11 252.07 785.03 250.08
  Z"
/>
<path fill="#9a9b93" d="
  M 191.46 256.25
  L 191.48 268.02
  L 160.95 267.43
  A 1.07 1.04 -64.9 0 0 160.26 267.69
  C 159.75 268.16 154.33 267.50 153.04 267.50
  L 153.03 255.32
  Q 155.77 253.90 158.53 254.38
  C 167.25 255.92 176.41 254.49 185.25 255.18
  C 187.18 255.33 191.08 253.62 191.46 256.25
  Z"
/>
<path fill="#9a9b93" d="
  M 321.14 268.31
  L 286.54 296.68
  Q 282.72 290.38 277.50 285.29
  L 313.79 255.39
  A 1.00 1.00 0.0 0 1 315.33 255.75
  L 321.14 268.31
  Z"
/>
<path fill="#9a9b93" d="
  M 691.79 258.75
  L 703.55 270.82
  L 657.84 271.41
  A 1.02 0.98 -61.5 0 0 657.27 271.59
  L 655.25 273.04
  L 643.71 261.00
  C 643.42 259.55 644.45 258.73 645.85 258.70
  Q 663.80 258.35 681.74 258.53
  C 683.69 258.55 685.61 257.97 687.62 257.79
  A 1.00 0.99 69.9 0 1 688.52 258.21
  Q 689.78 259.97 691.79 258.75
  Z"
/>
<path fill="#6f7165" d="
  M 1231.81 262.13
  L 1244.10 279.17
  Q 1245.24 280.75 1243.28 280.75
  L 1139.83 280.75
  A 1.01 1.00 64.5 0 1 1139.19 280.52
  L 1119.96 264.75
  C 1123.26 262.08 1134.15 263.15 1144.50 263.23
  Q 1156.14 263.31 1186.75 263.20
  C 1188.30 263.20 1189.75 262.86 1190.84 262.87
  Q 1211.34 263.10 1231.81 262.13
  Z"
/>
<path fill="#6f7165" d="
  M 1053.25 264.54
  L 1034.18 280.52
  A 1.01 1.00 -64.5 0 1 1033.54 280.75
  L 918.55 280.75
  A 1.00 1.00 0.0 0 1 917.55 279.75
  L 917.54 263.00
  C 932.14 262.63 948.40 262.95 961.32 262.86
  Q 1003.66 262.55 1046.00 262.69
  Q 1050.53 262.70 1053.25 264.54
  Z"
/>
<path fill="#6f7165" d="
  M 1287.19 265.99
  Q 1303.21 266.06 1319.20 266.06
  C 1324.67 266.07 1331.21 265.09 1337.75 266.79
  L 1325.57 280.43
  A 1.02 1.01 20.9 0 1 1324.82 280.76
  L 1275.63 280.74
  Q 1273.96 280.74 1275.01 279.44
  Q 1280.85 272.18 1287.19 265.99
  Z"
/>
<path fill="#6f7165" d="
  M 191.48 268.02
  L 191.56 279.74
  A 1.01 1.00 -90.0 0 1 190.56 280.75
  L 154.21 280.75
  A 1.01 1.00 89.4 0 1 153.21 279.76
  L 153.04 267.50
  C 154.33 267.50 159.75 268.16 160.26 267.69
  A 1.07 1.04 -64.9 0 1 160.95 267.43
  L 191.48 268.02
  Z"
/>
<path fill="#6f7165" d="
  M 703.55 270.82
  Q 708.08 274.43 712.26 279.07
  Q 713.77 280.74 711.52 280.74
  L 663.33 280.78
  A 1.03 0.98 66.5 0 1 662.62 280.48
  L 655.25 273.04
  L 657.27 271.59
  A 1.02 0.98 -61.5 0 1 657.84 271.41
  L 703.55 270.82
  Z"
/>
<path fill="#6f7165" d="
  M 878.76 270.85
  Q 882.12 274.51 884.95 279.25
  Q 885.86 280.76 884.09 280.76
  L 780.51 280.76
  A 0.99 0.98 62.8 0 1 779.93 280.57
  Q 774.64 276.80 769.72 271.60
  L 878.76 270.85
  Z"
/>
<path fill="#6f7165" d="
  M 1430.75 273.99
  L 1435.11 279.09
  Q 1436.53 280.76 1434.35 280.74
  Q 1412.33 280.62 1390.32 280.96
  C 1386.73 281.01 1384.85 278.62 1383.19 275.78
  Q 1406.97 274.35 1430.75 273.99
  Z"
/>
<path fill="#53544c" d="
  M 485.75 277.31
  C 453.93 297.35 413.13 297.82 381.00 278.04
  Q 384.68 276.46 388.75 276.46
  Q 428.73 276.49 468.70 276.50
  Q 469.06 276.50 475.76 275.98
  Q 480.84 275.58 485.75 277.31
  Z"
/>
<path fill="#53544c" d="
  M 277.50 285.29
  Q 282.72 290.38 286.54 296.68
  L 238.79 296.50
  L 229.79 286.50
  C 229.13 285.75 229.57 285.25 230.42 285.25
  Q 253.96 285.22 277.50 285.29
  Z"
/>
<path fill="#9a9b93" d="
  M 1097.47 295.06
  L 1056.25 329.72
  Q 1051.83 323.46 1046.50 318.46
  L 1085.57 286.21
  A 1.01 1.00 -47.1 0 1 1086.80 286.16
  Q 1092.76 290.45 1097.47 295.06
  Z"
/>
<path fill="#9a9b93" d="
  M 229.79 286.50
  L 238.79 296.50
  Q 238.72 312.48 238.75 328.46
  C 238.75 329.38 238.28 329.97 237.32 329.70
  Q 234.10 323.25 228.71 318.50
  Q 229.00 301.93 228.75 291.25
  Q 228.69 288.49 229.79 286.50
  Z"
/>
<path fill="#53544c" d="
  M 526.25 312.71
  C 471.15 355.73 389.25 350.41 343.04 296.77
  Q 343.38 296.63 343.79 296.98
  C 375.68 324.73 417.75 335.64 459.24 327.69
  Q 496.63 320.52 524.34 294.85
  Q 525.99 293.32 526.02 295.57
  L 526.25 312.71
  Z"
/>
<path fill="#9a9b93" d="
  M 1366.26 313.49
  L 1351.00 329.54
  Q 1346.77 323.67 1341.75 318.46
  L 1355.52 303.28
  A 1.00 1.00 0.0 0 1 1357.00 303.28
  L 1366.26 313.49
  Z"
/>
<path fill="#53544c" d="
  M 1518.05 318.47
  Q 1522.63 322.92 1526.77 328.18
  Q 1528.23 330.05 1525.87 329.80
  Q 1523.27 329.52 1520.66 329.60
  Q 1516.31 329.73 1516.21 329.73
  Q 1448.71 329.77 1381.21 329.75
  A 0.99 0.99 0.0 0 1 1380.51 329.46
  Q 1375.44 324.52 1370.99 318.57
  L 1518.05 318.47
  Z"
/>
<path fill="#53544c" d="
  M 228.71 318.50
  Q 234.10 323.25 237.32 329.70
  L 125.92 329.75
  A 1.03 1.01 67.2 0 1 125.20 329.45
  Q 120.40 324.49 116.18 318.57
  L 228.71 318.50
  Z"
/>
<path fill="#53544c" d="
  M 526.79 318.50
  L 1046.50 318.46
  Q 1051.83 323.46 1056.25 329.72
  L 536.75 329.75
  A 1.00 0.98 69.7 0 1 535.99 329.39
  L 526.79 318.50
  Z"
/>
<path fill="#53544c" d="
  M 1341.75 318.46
  Q 1346.77 323.67 1351.00 329.54
  L 1140.40 329.69
  A 1.01 0.95 -23.4 0 1 1139.76 329.46
  L 1127.00 318.79
  C 1127.13 318.74 1127.65 318.56 1127.77 318.56
  Q 1234.76 318.51 1341.75 318.46
  Z"
/>
</svg>
